<svg width="51" height="51" viewBox="0 0 51 51" fill="none" xmlns="http://www.w3.org/2000/svg">
<g clip-path="url(#clip0_63_307)">
<path d="M13.5862 13.4321C11.1435 8.05906 14.501 4.00563 17.8734 2.66263V2.67113C17.9148 2.1505 17.9828 1.68194 18.054 1.28775C18.1911 0.538688 18.8488 0 19.6116 0H29.6066C35.8254 0 39.9064 7.25263 37.5966 13.6021L36.0177 17.9446H15.6379L13.5872 13.4332L13.5862 13.4321Z" fill="url(#paint0_linear_63_307)"/>
<path d="M40.375 51H10.625C9.044 51 7.55544 50.3009 6.54288 49.0812C5.52819 47.8603 5.11381 46.2655 5.40494 44.7058L6.91475 36.6616C7.43644 33.8481 9.48813 31.6243 12.2666 30.8603L19.6329 28.8533C23.4696 27.8067 27.5294 27.8067 31.3682 28.8533L38.7324 30.8603H38.7345C41.5129 31.6243 43.5646 33.8481 44.0874 36.6637L45.5951 44.7047C45.8862 46.2645 45.4729 47.8593 44.4582 49.0812C43.4456 50.3009 41.956 51 40.375 51Z" fill="url(#paint1_linear_63_307)"/>
<path opacity="0.5" d="M24.4375 34H26.5625V51H24.4375V34Z" fill="url(#paint2_linear_63_307)"/>
<path d="M18.0625 42.5H14.875C14.2874 42.5 13.8125 42.024 13.8125 41.4375C13.8125 40.851 14.2874 40.375 14.875 40.375H18.0625C18.6501 40.375 19.125 40.851 19.125 41.4375C19.125 42.024 18.6501 42.5 18.0625 42.5Z" fill="url(#paint3_linear_63_307)"/>
<path d="M23.375 27.625H27.625C31.7326 27.625 35.0625 30.9549 35.0625 35.0625C35.0625 36.2366 34.1116 37.1875 32.9375 37.1875H18.0625C16.8884 37.1875 15.9375 36.2366 15.9375 35.0625C15.9375 30.9549 19.2674 27.625 23.375 27.625Z" fill="url(#paint4_linear_63_307)"/>
<path d="M20.1875 25.5425V31.875C20.1875 34.8085 22.5664 37.1875 25.5 37.1875C28.4336 37.1875 30.8125 34.8085 30.8125 31.875V25.5425H20.1875Z" fill="url(#paint5_linear_63_307)"/>
<path d="M35.0636 25.5H29.75C29.1624 25.5 28.6875 25.024 28.6875 24.4375C28.6875 23.851 29.1624 23.375 29.75 23.375H35.0636C35.6501 23.375 36.1261 22.8979 36.1261 22.3125V19.125C36.1261 18.5385 36.601 18.0625 37.1886 18.0625C37.7761 18.0625 38.2511 18.5385 38.2511 19.125V22.3125C38.2511 24.0699 36.8209 25.5 35.0636 25.5Z" fill="url(#paint6_linear_63_307)"/>
<path d="M36.125 21.25H34C33.4124 21.25 32.9375 20.774 32.9375 20.1875V13.8125C32.9375 13.226 33.4124 12.75 34 12.75H36.125C37.8824 12.75 39.3125 14.1801 39.3125 15.9375V18.0625C39.3125 19.8199 37.8824 21.25 36.125 21.25Z" fill="url(#paint7_linear_63_307)"/>
<path d="M11.6875 18.0625V15.9375C11.6875 14.1801 13.1176 12.75 14.875 12.75H17C17.5876 12.75 18.0625 13.226 18.0625 13.8125V20.1875C18.0625 20.774 17.5876 21.25 17 21.25H14.875C13.1176 21.25 11.6875 19.8199 11.6875 18.0625Z" fill="url(#paint8_linear_63_307)"/>
<path d="M15.9375 21.25V13.8125C15.9375 11.4654 17.8404 9.5625 20.1875 9.5625H30.8125C33.1596 9.5625 35.0625 11.4654 35.0625 13.8125V21.25C35.0625 23.2911 34.2518 25.2482 32.8089 26.6911L30.9421 28.5579C29.4992 30.0008 27.5421 30.8114 25.5011 30.8114C23.46 30.8114 21.5029 30.0008 20.06 28.5579L18.1932 26.6911C16.7503 25.2482 15.9396 23.2911 15.9396 21.25H15.9375Z" fill="url(#paint9_linear_63_307)"/>
<path d="M35.0636 25.5H29.75C29.1624 25.5 28.6875 25.024 28.6875 24.4375C28.6875 23.851 29.1624 23.375 29.75 23.375H35.0636V25.5Z" fill="url(#paint10_linear_63_307)"/>
<path d="M28.6875 22.3125H26.5625C25.3889 22.3125 24.4375 23.2639 24.4375 24.4375C24.4375 25.6111 25.3889 26.5625 26.5625 26.5625H28.6875C29.8611 26.5625 30.8125 25.6111 30.8125 24.4375C30.8125 23.2639 29.8611 22.3125 28.6875 22.3125Z" fill="url(#paint11_linear_63_307)"/>
</g>
<defs>
<linearGradient id="paint0_linear_63_307" x1="12.4249" y1="3.18963" x2="34.9605" y2="14.8846" gradientUnits="userSpaceOnUse">
<stop stop-color="#3E4154"/>
<stop offset="1" stop-color="#1B2129"/>
</linearGradient>
<linearGradient id="paint1_linear_63_307" x1="25.5" y1="29.2698" x2="25.5" y2="51.2922" gradientUnits="userSpaceOnUse">
<stop stop-color="#4793EB"/>
<stop offset="1" stop-color="#2367EC"/>
</linearGradient>
<linearGradient id="paint2_linear_63_307" x1="25.5" y1="36.7816" x2="25.5" y2="50.6908" gradientUnits="userSpaceOnUse">
<stop stop-color="#2B50D2"/>
<stop offset="1" stop-color="#182EA5"/>
</linearGradient>
<linearGradient id="paint3_linear_63_307" x1="13.8582" y1="40.3676" x2="18.9136" y2="42.4394" gradientUnits="userSpaceOnUse">
<stop stop-color="white"/>
<stop offset="1" stop-color="#DADFE0"/>
</linearGradient>
<linearGradient id="paint4_linear_63_307" x1="25.5" y1="28.8639" x2="25.5" y2="36.8263" gradientUnits="userSpaceOnUse">
<stop stop-color="#6FC6FC"/>
<stop offset="1" stop-color="#50A7F6"/>
</linearGradient>
<linearGradient id="paint5_linear_63_307" x1="20.8834" y1="28.119" x2="30.6287" y2="32.8695" gradientUnits="userSpaceOnUse">
<stop stop-color="#F1D2BD"/>
<stop offset="1" stop-color="#FEB592"/>
</linearGradient>
<linearGradient id="paint6_linear_63_307" x1="33.4687" y1="20.4584" x2="33.4687" y2="25.2556" gradientUnits="userSpaceOnUse">
<stop stop-color="#C6CBCC"/>
<stop offset="1" stop-color="#9FA5A6"/>
</linearGradient>
<linearGradient id="paint7_linear_63_307" x1="36.125" y1="13.0273" x2="36.125" y2="21.3223" gradientUnits="userSpaceOnUse">
<stop stop-color="#4793EB"/>
<stop offset="1" stop-color="#2367EC"/>
</linearGradient>
<linearGradient id="paint8_linear_63_307" x1="14.875" y1="13.0273" x2="14.875" y2="21.3223" gradientUnits="userSpaceOnUse">
<stop stop-color="#4793EB"/>
<stop offset="1" stop-color="#2367EC"/>
</linearGradient>
<linearGradient id="paint9_linear_63_307" x1="25.5" y1="10.2255" x2="25.5" y2="30.9166" gradientUnits="userSpaceOnUse">
<stop stop-color="#F1D2BD"/>
<stop offset="0.314" stop-color="#F2CFB9"/>
<stop offset="0.608" stop-color="#F5C7AD"/>
<stop offset="0.894" stop-color="#FBBB9B"/>
<stop offset="1" stop-color="#FEB592"/>
</linearGradient>
<linearGradient id="paint10_linear_63_307" x1="31.875" y1="-1.86993e-06" x2="31.875" y2="25.2556" gradientUnits="userSpaceOnUse">
<stop stop-color="#C6CBCC"/>
<stop offset="1" stop-color="#9FA5A6"/>
</linearGradient>
<linearGradient id="paint11_linear_63_307" x1="27.625" y1="22.2041" x2="27.625" y2="26.1046" gradientUnits="userSpaceOnUse">
<stop stop-color="#4793EB"/>
<stop offset="1" stop-color="#2367EC"/>
</linearGradient>
<clipPath id="clip0_63_307">
<rect width="51" height="51" fill="white"/>
</clipPath>
</defs>
</svg>
