<svg width="24" height="24" viewBox="0 0 24 24" fill="none" xmlns="http://www.w3.org/2000/svg">
<g clip-path="url(#clip0_78_363)">
<path d="M22.8 11.9999C22.8 9.01808 21.5909 6.31799 19.6364 4.36356C17.682 2.40908 14.9819 1.19995 12.0001 1.19995C9.0182 1.19995 6.31817 2.40909 4.36369 4.36351C2.40927 6.31799 1.20013 9.01802 1.20013 11.9999C1.20013 14.9817 2.40928 17.6818 4.36369 19.6363C6.31817 21.5907 9.0182 22.7998 12.0001 22.7998C14.9819 22.7998 17.682 21.5907 19.6364 19.6362C21.5909 17.6818 22.8 14.9817 22.8 11.9999ZM18.9577 5.04229C20.7384 6.823 21.8401 9.28313 21.8401 11.9999C21.8401 14.7166 20.7384 17.1768 18.9577 18.9575C17.177 20.7382 14.7168 21.8399 12.0001 21.8399C9.28325 21.8399 6.8232 20.7382 5.04243 18.9575C3.26172 17.1768 2.16007 14.7167 2.16007 11.9999C2.16007 9.28306 3.26171 6.823 5.04243 5.04224C6.8232 3.26153 9.28327 2.15987 12.0001 2.15987C14.7168 2.15987 17.177 3.26152 18.9577 5.04229Z" fill="#516C7C"/>
<path d="M17.3111 12.4797C17.5761 12.4797 17.791 12.2648 17.791 11.9997C17.791 11.7347 17.5761 11.5198 17.3111 11.5198H6.68894C6.4239 11.5198 6.20898 11.7347 6.20898 11.9997C6.20898 12.2648 6.42391 12.4797 6.68894 12.4797H17.3111Z" fill="#516C7C"/>
<path d="M10.5182 16.5083C10.7056 16.6957 11.0096 16.6957 11.197 16.5083C11.3843 16.3209 11.3843 16.0169 11.197 15.8296L7.36765 12.0003L11.1977 8.17008C11.3851 7.98271 11.3851 7.67872 11.1977 7.49136C11.0103 7.30399 10.7063 7.30399 10.519 7.49136L6.34957 11.6609C6.1622 11.8483 6.1622 12.1523 6.34957 12.3396L10.5182 16.5083Z" fill="#516C7C"/>
</g>
<defs>
<clipPath id="clip0_78_363">
<rect width="24" height="24" fill="white"/>
</clipPath>
</defs>
</svg>
