<svg width="64" height="52" viewBox="0 0 64 52" fill="none" xmlns="http://www.w3.org/2000/svg">
<path d="M61.7159 44.3852C61.7159 45.7725 61.1439 47.103 60.1255 48.0839C59.1072 49.0649 57.726 49.616 56.2859 49.616H7.41496C5.97481 49.616 4.59364 49.0649 3.5753 48.0839C2.55696 47.103 1.98486 45.7725 1.98486 44.3852V15.616C1.98486 14.2287 2.55696 12.8982 3.5753 11.9173C4.59364 10.9363 5.97481 10.3852 7.41496 10.3852H15.1184C17.0935 10.3852 18.9409 9.42333 20.0535 7.81562L21.9269 5.10866C23.0396 3.50095 24.887 2.53906 26.8621 2.53906H36.8388C38.8139 2.53906 40.6612 3.50095 41.7739 5.10866L43.6473 7.81562C44.76 9.42332 46.6074 10.3852 48.5825 10.3852H56.2859C57.726 10.3852 59.1072 10.9363 60.1255 11.9173C61.1439 12.8982 61.7159 14.2287 61.7159 15.616V44.3852Z" stroke="#193048" stroke-opacity="0.05" stroke-width="3.69231" stroke-linecap="round" stroke-linejoin="round"/>
<path d="M31.8504 41.7698C39.5477 41.7698 45.7877 35.6224 45.7877 28.0391C45.7877 20.4558 39.5477 14.3083 31.8504 14.3083C24.1531 14.3083 17.9132 20.4558 17.9132 28.0391C17.9132 35.6224 24.1531 41.7698 31.8504 41.7698Z" stroke="#193048" stroke-opacity="0.05" stroke-width="3.69231" stroke-linecap="round" stroke-linejoin="round"/>
</svg>
