<svg width="30" height="30" viewBox="0 0 30 30" fill="none" xmlns="http://www.w3.org/2000/svg">
<g clip-path="url(#clip0_69_750)">
<path d="M7.27725 11.5843C7.54384 11.5843 7.75995 11.3682 7.75995 11.1016C7.75995 10.835 7.54384 10.6189 7.27725 10.6189C7.01067 10.6189 6.79456 10.835 6.79456 11.1016C6.79456 11.3682 7.01067 11.5843 7.27725 11.5843Z" fill="white"/>
<path d="M27.57 18.8668L25.2255 14.8477C24.7527 14.0371 23.956 13.4554 23.04 13.2518L20.3095 12.645V12.5145C21.9446 12.2795 23.2055 10.8699 23.2055 9.17086V5.90918C23.2055 4.61719 22.756 3.3948 21.9327 2.41846C22.132 2.15754 22.2402 1.84043 22.2402 1.50656C22.2402 0.675879 21.5643 0 20.7335 0H19.8853C19.0546 0 18.3787 0.675879 18.3787 1.50662C18.3787 1.65229 18.3995 1.79473 18.4392 1.93072H18.2379C16.1923 1.93072 14.3033 3.0249 13.2835 4.79197C12.2724 5.58809 11.6213 6.82178 11.6213 8.20553V9.17086C11.6213 10.3891 12.5289 11.3988 13.7033 11.561C14.0871 12.6956 15.1613 13.5149 16.4238 13.5149C16.4319 13.5149 16.44 13.5144 16.448 13.5144V13.6545C15.1075 14.1397 13.8683 14.8276 12.7507 15.7041C12.3924 14.0605 11.9148 12.4404 11.319 10.8514C10.8338 9.55752 9.57934 8.68822 8.19752 8.68822C6.49244 8.68822 5.08232 9.97477 4.88697 11.6282C3.77527 11.8434 2.93316 12.824 2.93316 13.9977V15.2613L3.63172 14.9121C4.1965 14.6296 4.82891 14.4803 5.46049 14.4803H6.79455V15.4678C4.09232 15.7125 1.96777 17.9902 1.96777 20.7551C1.96777 22.3883 2.13014 24.0283 2.45047 25.6296L2.67148 26.7352L4.29875 24.5655L4.35811 24.6842L4.17564 25.5965C4.01926 26.3785 3.63852 27.0899 3.07455 27.6539L2.73318 27.9952L3.07449 28.3365C3.47691 28.7389 4.01199 28.9605 4.58111 28.9605C4.77166 28.9605 4.95764 28.9359 5.136 28.8898L5.50613 30L5.92396 29.9164C7.29061 29.6431 8.41109 28.6741 8.90521 27.4039C9.39178 27.7745 9.99846 27.9952 10.656 27.9952C11.3971 27.9952 12.0739 27.715 12.5867 27.2554V29.9259H23.2055V29.2775C23.2055 28.0984 22.9189 26.9634 22.3788 25.9518L26.4173 23.4665C27.4134 22.8535 28.0322 21.7461 28.0322 20.5765C28.0323 19.9764 27.8724 19.3852 27.57 18.8668ZM21.1403 13.8186L21.0818 13.8718C20.6776 14.2392 20.2861 14.6179 19.9047 15.005L19.4568 14.1092C19.63 13.9246 19.8057 13.7422 19.9834 13.5615L21.1403 13.8186ZM21.8121 18.9589L23.0057 20.63L21.4227 21.6854L21.8121 18.9589ZM20.5859 25.0991C21.1204 25.6681 21.5347 26.3217 21.8145 27.0298H19.6859C18.1497 27.0298 16.7451 26.3064 15.8586 25.0991H20.5859ZM20.3094 24.1338H13.552V23.1684H20.3094V24.1338ZM7.75988 24.1338C7.75988 23.6015 8.19295 23.1684 8.72521 23.1684C9.25748 23.1684 9.69055 23.6015 9.69055 24.1338H7.75988ZM13.8774 22.203L14.5551 20.9445L14.9503 21.7347C14.8672 21.8898 14.786 22.0461 14.7056 22.203H13.8774ZM15.6118 17.3507L15.1021 15.3121C15.3045 15.2029 15.5103 15.0996 15.7188 15.0016L16.125 16.626C15.9509 16.8654 15.7794 17.1067 15.6118 17.3507ZM15.5204 20.7166L15.1246 19.9251C15.3607 19.5193 15.6054 19.1192 15.8586 18.7247L16.2586 19.5248C16.0033 19.9156 15.7575 20.313 15.5204 20.7166ZM16.8819 18.6127L16.4752 17.7994C16.7305 17.4305 16.994 17.0676 17.2646 16.7098L17.6798 17.5403C17.4056 17.8916 17.1396 18.2491 16.8819 18.6127ZM18.3467 16.7156L17.9229 15.8681C18.1953 15.5318 18.4748 15.2012 18.7609 14.8758L19.1967 15.7475C18.9059 16.0641 18.6228 16.3871 18.3467 16.7156ZM19.5026 1.8893C19.4004 1.78711 19.3441 1.65117 19.3441 1.50662C19.3441 1.2082 19.5869 0.965391 19.8854 0.965391H20.7337C21.0321 0.965391 21.2749 1.2082 21.2749 1.50662C21.2749 1.65117 21.2186 1.78711 21.1164 1.8893L21.075 1.93066H19.5441L19.5026 1.8893ZM18.2379 2.89605H21.0689C21.8257 3.72064 22.2402 4.78301 22.2402 5.90924V6.1217C21.2785 4.7557 19.6898 3.86145 17.8961 3.86145H15.9654C15.7391 3.86145 15.5168 3.87896 15.2997 3.91248C16.1244 3.26502 17.1547 2.89605 18.2379 2.89605ZM13.552 8.20547V10.5358C12.9902 10.3365 12.5867 9.80004 12.5867 9.1708V8.20547C12.5867 6.34248 14.1024 4.82672 15.9654 4.82672H17.8961C20.2914 4.82672 22.2402 6.77543 22.2402 9.1708C22.2402 10.3363 21.4098 11.3114 20.3095 11.5356V10.5359C20.8713 10.3362 21.2748 9.79793 21.2748 9.16682V9.14256C21.2748 8.76275 21.1268 8.4058 20.8579 8.1375C20.6915 7.9715 20.4913 7.85174 20.2728 7.78482C20.0732 6.65391 19.0834 5.79205 17.8961 5.79205H15.9654C14.6346 5.79211 13.552 6.87475 13.552 8.20547ZM18.4545 12.6738L18.7201 12.4082L18.0375 11.7256L17.7719 11.9912C17.4119 12.3513 16.9331 12.5496 16.4238 12.5496C15.3726 12.5496 14.5173 11.6943 14.5173 10.6431V8.20547C14.5173 7.40701 15.1669 6.75744 15.9654 6.75744H17.8961C18.6945 6.75744 19.3441 7.40701 19.3441 8.20547V8.68922L19.854 8.68805H19.855C19.9762 8.68805 20.0902 8.73516 20.176 8.82082C20.262 8.90666 20.3095 9.02098 20.3095 9.14256V9.16682C20.3095 9.43512 20.0931 9.65344 19.8268 9.65344H19.3441V12.8348C18.4666 13.7231 17.6419 14.6586 16.8728 15.637L16.6189 14.6214C16.7725 14.5635 16.927 14.5076 17.0834 14.4554L17.4134 14.3454V13.3402C17.8 13.1985 18.1546 12.9736 18.4545 12.6738ZM14.2358 15.8266L14.8911 18.4478C14.4922 19.0813 14.1136 19.7283 13.7578 20.3892L13.4795 20.9061C13.3903 19.5165 13.2189 18.1376 12.9661 16.7736C13.3711 16.4296 13.7947 16.1136 14.2358 15.8266ZM3.91859 13.7563C4.02746 13.1097 4.5667 12.6077 5.23045 12.5548C5.57006 12.7642 5.78832 13.1174 5.82359 13.5148H5.46049C4.93854 13.5149 4.41617 13.5974 3.91859 13.7563ZM3.21354 24.4035C3.02732 23.197 2.93316 21.974 2.93316 20.755C2.93316 18.3851 4.84051 16.4524 7.20084 16.4116L7.2732 16.4357C8.44941 16.8278 9.31168 17.7928 9.5924 18.9596L8.92607 18.6265L8.69908 19.3073C8.49119 19.931 8.16459 20.516 7.74412 21.022L6.49818 19.7761L6.24025 21.0658C6.04115 22.0613 5.60902 22.9834 4.97879 23.767L4.46369 22.7368L3.21354 24.4035ZM6.14293 28.8581L6.00459 28.443C6.31086 28.1861 6.54887 27.8452 6.68176 27.4464L6.76971 27.1825L5.85389 26.8772L5.76594 27.1412C5.59566 27.652 5.11953 27.9952 4.58105 27.9952C4.42684 27.9952 4.27719 27.9655 4.13873 27.9087C4.62928 27.2911 4.9659 26.5669 5.12217 25.7858L5.30932 24.8501C6.15605 23.9681 6.76127 22.8967 7.07768 21.7208L7.75988 22.403L8.10119 22.0617C8.69264 21.4702 9.16391 20.7573 9.4785 19.9819L10.6559 20.5707V19.7897C10.6559 17.9139 9.49994 16.248 7.75988 15.5849V14.4763C8.56344 14.4361 9.2767 13.974 9.63963 13.2481L8.77619 12.8164C8.5608 13.2472 8.12773 13.5149 7.64592 13.5149H6.79062C6.75582 12.8192 6.40479 12.1913 5.83994 11.7998C5.95227 10.5977 6.96652 9.6535 8.19752 9.6535C9.1792 9.6535 10.0704 10.2711 10.4151 11.1903C11.7731 14.8118 12.5 18.5991 12.5792 22.4585C12.2967 22.2963 11.9698 22.203 11.6213 22.203C11.0451 22.203 10.5273 22.4571 10.1733 22.8588C9.81928 22.4571 9.30154 22.203 8.72527 22.203C7.66068 22.203 6.79455 23.0691 6.79455 24.1338V25.0991H7.75988C7.75988 25.6287 7.9035 26.1251 8.1527 26.5528C7.9376 27.623 7.161 28.5017 6.14293 28.8581ZM12.5867 24.1338H10.6559C10.6559 23.6015 11.089 23.1684 11.6213 23.1684C12.1535 23.1684 12.5867 23.6015 12.5867 24.1338ZM10.6559 27.0298C9.59135 27.0298 8.72521 26.1637 8.72521 25.0991H12.5866C12.5867 26.1637 11.7205 27.0298 10.6559 27.0298ZM13.552 28.9605V25.0991H14.7114C15.7273 26.8928 17.6062 27.9952 19.6859 27.9952H22.1045C22.1715 28.3107 22.2155 28.6331 22.2321 28.9605H13.552ZM25.9114 22.6444L21.8662 25.1337C21.686 24.8854 21.4888 24.6472 21.2748 24.4209V22.944L23.8343 21.2377H25.1362V20.2724H23.9365L22.0097 17.575L22.2352 15.9966L21.2795 15.8601L20.3734 22.2031H15.7943C17.3263 19.3378 19.3201 16.7779 21.731 14.5862L22.2934 14.0749L22.8304 14.1943C23.4847 14.3397 24.0538 14.7551 24.3915 15.3342L26.736 19.3533C26.9524 19.7242 27.0668 20.1472 27.0668 20.5767C27.0669 21.4134 26.6241 22.2057 25.9114 22.6444Z" fill="white"/>
<path d="M15.4827 8.68823H16.448V10.619H15.4827V8.68823Z" fill="white"/>
</g>
<defs>
<clipPath id="clip0_69_750">
<rect width="30" height="30" fill="white"/>
</clipPath>
</defs>
</svg>
