<svg width="30" height="30" viewBox="0 0 30 30" fill="none" xmlns="http://www.w3.org/2000/svg">
<path d="M12.3811 10.0986C13.5608 9.93644 14.3919 8.83779 14.2257 7.65401C13.9622 5.76077 11.5176 5.13239 10.3581 6.65266C9.24732 8.10401 10.3379 10.3054 12.3811 10.0986ZM12.0852 6.60806C13.7676 6.60806 13.9135 9.06482 12.2716 9.2959C11.5298 9.39725 10.8446 8.87833 10.7433 8.1405C10.6257 7.32563 11.2622 6.60806 12.0852 6.60806Z" fill="white"/>
<path d="M28.0054 23.4932C25.6946 23.254 22.5892 23.1891 19.7514 23.6026L17.1325 16.8526C17.8419 16.204 17.4487 14.9918 16.3987 14.9675L14.923 11.1607C14.7284 10.6621 13.9744 10.954 14.1689 11.4526L15.4946 14.8702C13.9054 14.5661 12.8392 13.6094 12.7865 12.9567C12.6527 10.358 10.4554 9.68505 9.32435 10.7472C7.98246 9.831 4.44327 12.2878 5.31489 13.6864C4.70678 14.0715 4.09057 14.8702 4.10273 16.3134C4.10678 16.7067 4.55273 16.7351 4.51219 16.7148C5.19733 16.7107 4.66624 15.8513 5.23381 14.9026C4.8203 16.6702 5.10814 18.6972 6.823 18.231C7.19192 18.1053 7.79597 17.9675 8.28246 17.8661C8.50949 23.3553 5.11624 23.2094 6.18651 24.7742C4.30543 25.4756 2.68381 26.5499 1.70678 27.6972C1.60543 27.8188 1.58111 27.9851 1.64597 28.131C1.81624 28.4959 0.401378 28.3661 27.9608 28.3661C28.1838 28.3661 28.3662 28.1837 28.3662 27.9607C28.2406 24.3242 28.6581 23.558 28.0054 23.4932ZM11.6716 16.5891L11.8338 15.9323C13.0581 16.9053 14.4608 17.2702 16.3784 17.1405L18.9365 23.7364C17.7649 23.9513 16.6622 24.2553 15.7014 24.6769C15.8271 24.5188 15.9041 24.3283 15.9162 24.1134C16.1271 21.0323 14.7 18.5067 11.6716 16.5891ZM6.59192 17.4567C5.41624 17.7729 5.90273 14.708 6.44597 14.0513C6.60003 13.8648 6.55138 13.6215 6.39327 13.4878C6.23922 13.358 5.97165 13.3621 5.98381 13.1756C6.04868 12.3729 8.36354 10.9742 8.89462 11.4405C8.41219 12.7905 8.20949 14.5702 8.26219 17.0472C7.81624 17.1323 7.05408 17.2986 6.59192 17.4567ZM6.81489 24.2351C6.79868 24.1661 6.81895 24.1094 6.88381 24.0486C10.7392 20.4688 8.01084 15.9323 9.7176 11.5459C10.2284 10.6864 11.8744 10.9256 11.9798 13.0134C12.0771 14.1891 13.646 15.5067 15.8352 15.7418L16.0703 16.3459C12.5798 16.4999 12.1135 14.6148 11.4892 14.7972C11.1041 14.9067 11.2217 15.2756 10.8162 16.6864C10.7757 16.8607 10.8487 17.0391 10.9987 17.1323C13.9622 18.9202 15.3081 21.1864 15.1095 24.0648C15.0933 24.308 14.5541 24.4053 14.5298 24.0851C14.3514 21.6891 13.1716 19.8932 11.023 18.7459C10.7838 18.6161 10.4798 18.758 10.4311 19.0337C9.70543 23.1161 7.28516 24.154 7.10678 24.4742C7.10273 24.4742 7.09868 24.4783 7.09462 24.4783C7.01354 24.4215 6.85543 24.4134 6.81489 24.2351ZM13.8122 24.4986C12.2149 23.9067 10.4717 23.8296 8.79327 24.0891C9.92841 22.9661 10.7108 21.5107 11.1162 19.731C13.8852 21.4864 13.5811 24.004 13.8122 24.4986ZM14.173 25.5283C13.4433 26.0634 12.8757 26.7283 12.5635 27.5553H2.98381C5.473 25.3337 10.3987 23.704 14.173 25.5283ZM27.5595 27.5553H13.4514C15.2311 23.9756 23.5784 23.8986 27.5595 24.2634V27.5553Z" fill="white"/>
<path d="M18.0284 10.5121C17.5136 9.87556 16.2041 9.49448 16.2041 10.2404C16.2041 10.4634 16.3865 10.6458 16.6095 10.6458C17.169 10.6458 17.623 11.0999 17.623 11.6593C17.623 12.1945 18.4338 12.1945 18.4338 11.6593C18.4338 11.0999 18.8879 10.6458 19.4473 10.6458C19.6703 10.6458 19.8528 10.4634 19.8528 10.2404C19.8528 9.49448 18.5433 9.87151 18.0284 10.5121Z" fill="white"/>
<path d="M14.9595 4.24456C15.5189 4.24456 15.973 4.69861 15.973 5.25807C15.973 5.79321 16.7838 5.79321 16.7838 5.25807C16.7838 4.69861 17.2379 4.24456 17.7973 4.24456C18.3325 4.24456 18.3325 3.43375 17.7973 3.43375C17.2257 3.43375 16.7149 3.69726 16.3784 4.11078C15.8635 3.47429 14.5541 3.09321 14.5541 3.83915C14.5541 4.06213 14.7365 4.24456 14.9595 4.24456Z" fill="white"/>
<path d="M23.8702 8.07144C24.9527 8.07144 25.8365 7.19171 25.8365 6.10928C25.8365 5.02685 24.9527 4.14307 23.8702 4.14307C22.7878 4.14307 21.9081 5.02685 21.9081 6.10928C21.9081 7.19171 22.7878 8.07144 23.8702 8.07144ZM25.0256 6.10928C25.0256 7.62955 22.7189 7.63361 22.7189 6.10928C22.7189 4.57685 25.0256 4.58496 25.0256 6.10928Z" fill="white"/>
<path d="M23.4649 10.1999C23.4649 10.735 24.2758 10.735 24.2758 10.1999C24.2149 9.76205 24.4866 8.88232 23.8703 8.88232C23.2582 8.88232 23.5298 9.75395 23.4649 10.1999Z" fill="white"/>
<path d="M24.2757 2.92694C24.2149 2.4891 24.4865 1.60938 23.8703 1.60938C23.2541 1.60938 23.5257 2.481 23.4649 2.92694C23.4649 3.15397 24.2757 3.46208 24.2757 2.92694Z" fill="white"/>
<path d="M25.8324 8.6431C26.1851 8.91066 26.6149 9.72553 27.0527 9.28769C27.4865 8.85391 26.6797 8.42823 26.4081 8.07147C26.027 7.69039 25.4554 8.26202 25.8324 8.6431Z" fill="white"/>
<path d="M21.9122 4.1473C22.346 3.71351 21.5392 3.28784 21.2676 2.93108C20.8865 2.55 20.3149 3.12567 20.696 3.5027C20.9757 3.68108 21.4581 4.5973 21.9122 4.1473Z" fill="white"/>
<path d="M27.0528 6.51467C27.4906 6.45386 28.3703 6.72548 28.3703 6.10926C28.3703 5.88629 28.1879 5.70386 27.9649 5.70386H27.0528C26.5176 5.70386 26.5136 6.51467 27.0528 6.51467Z" fill="white"/>
<path d="M19.7798 6.51481C20.2176 6.454 21.0974 6.72563 21.0974 6.10941C21.0974 5.49319 20.2257 5.76481 19.7798 5.704C19.5568 5.704 19.3744 5.88644 19.3744 6.10941C19.3744 6.33238 19.5568 6.51481 19.7798 6.51481Z" fill="white"/>
<path d="M26.4081 4.14731L27.0527 3.50272C27.4338 3.12163 26.8581 2.55001 26.4811 2.93109L25.8365 3.57569C25.6784 3.7338 25.6784 3.9892 25.8365 4.14731C25.9905 4.30542 26.25 4.30542 26.4081 4.14731Z" fill="white"/>
<path d="M20.6919 8.71618C20.3109 9.09726 20.8865 9.66888 21.2636 9.2878C21.5311 8.9351 22.346 8.50537 21.9082 8.07159C21.4744 7.63375 21.0487 8.44456 20.6919 8.71618Z" fill="white"/>
</svg>
