<svg width="30" height="30" viewBox="0 0 30 30" fill="none" xmlns="http://www.w3.org/2000/svg">
<g clip-path="url(#clip0_69_728)">
<path d="M12.3513 21.0703H9.96118C9.63763 21.0703 9.37524 20.8079 9.37524 20.4844C9.37524 20.1608 9.63757 19.8984 9.96118 19.8984H12.3513C12.6749 19.8984 12.9373 20.1608 12.9373 20.4844C12.9373 20.8079 12.6749 21.0703 12.3513 21.0703Z" fill="white"/>
<path d="M20.0388 21.0703H17.6487C17.3251 21.0703 17.0627 20.8079 17.0627 20.4844C17.0627 20.1608 17.3251 19.8984 17.6487 19.8984H20.0388C20.3624 19.8984 20.6248 20.1608 20.6248 20.4844C20.6248 20.8079 20.3624 21.0703 20.0388 21.0703Z" fill="white"/>
<path d="M14.9894 21.0701C14.745 21.0701 14.5198 20.9122 14.4378 20.6815C14.357 20.4541 14.4259 20.1937 14.6105 20.0376C14.8031 19.8746 15.084 19.8551 15.2984 19.987C15.5035 20.1132 15.6107 20.3624 15.5637 20.5984C15.5098 20.8692 15.2656 21.0701 14.9894 21.0701Z" fill="white"/>
<path d="M18.4009 23.3789H11.5991C11.2756 23.3789 11.0132 23.1165 11.0132 22.793C11.0132 22.4694 11.2755 22.207 11.5991 22.207H18.4009C18.7244 22.207 18.9868 22.4694 18.9868 22.793C18.9868 23.1165 18.7245 23.3789 18.4009 23.3789Z" fill="white"/>
<path d="M17.4914 13.8528C18.2787 13.1602 18.7764 12.1457 18.7764 11.017C18.7764 8.9346 17.0823 7.24048 15 7.24048C12.9177 7.24048 11.2237 8.9346 11.2237 11.017C11.2237 12.1457 11.7213 13.1602 12.5086 13.8528C11.1783 14.3609 10.231 15.6505 10.231 17.1572V18.1618C10.231 18.4854 10.4933 18.7478 10.8169 18.7478H19.1832C19.5068 18.7478 19.7691 18.4854 19.7691 18.1618V17.1572C19.7691 15.6505 18.8217 14.3609 17.4914 13.8528ZM15 8.41235C16.4362 8.41235 17.6046 9.58077 17.6046 11.017C17.6046 12.4533 16.4362 13.6217 15 13.6217C13.5639 13.6217 12.3955 12.4533 12.3955 11.017C12.3955 9.58077 13.5638 8.41235 15 8.41235ZM18.5973 17.5758H11.4028V17.1572C11.4028 15.8539 12.4631 14.7935 13.7663 14.7935H16.2337C17.5369 14.7935 18.5972 15.8539 18.5972 17.1572V17.5758H18.5973Z" fill="white"/>
<path d="M7.0726 29.3739C6.62225 29.3739 6.17729 29.2322 5.79661 28.9556C5.17282 28.5024 4.84018 27.7731 4.90686 27.0049L5.57102 19.3502L0.535124 13.5479C0.0296942 12.9656 -0.129798 12.1802 0.108503 11.4469C0.346686 10.7136 0.93737 10.172 1.68842 9.99793L9.1726 8.26432L13.1338 1.68107C13.5314 1.02043 14.2291 0.625977 15 0.625977C15.771 0.625977 16.4686 1.02037 16.8661 1.68107L20.8274 8.26432L28.3116 9.99793C29.0626 10.172 29.6532 10.7136 29.8915 11.4469C30.1298 12.1803 29.9703 12.9657 29.4649 13.5479L24.429 19.3502L25.0931 27.0049C25.1598 27.7731 24.8272 28.5024 24.2034 28.9556C23.5796 29.4088 22.7833 29.4997 22.0736 29.1989L15 26.2017L7.92637 29.199C7.64981 29.3162 7.36007 29.3739 7.0726 29.3739ZM15 1.79791C14.6438 1.79791 14.3215 1.98014 14.1379 2.28535L10.0486 9.08123C9.96684 9.21717 9.83337 9.31414 9.67885 9.34994L1.95286 11.1396C1.60587 11.22 1.333 11.4703 1.22296 11.8091C1.11292 12.1479 1.18657 12.5108 1.42007 12.7798L6.61874 18.7696C6.72274 18.8894 6.77366 19.0463 6.76001 19.2043L6.07434 27.1063C6.04352 27.4613 6.19721 27.7982 6.48538 28.0075C6.77342 28.2168 7.14122 28.259 7.46917 28.1199L14.7714 25.0258C14.9175 24.9639 15.0824 24.9639 15.2285 25.0258L22.5307 28.1199C22.8586 28.2588 23.2263 28.2168 23.5145 28.0075C23.8027 27.7982 23.9564 27.4613 23.9255 27.1063L23.2399 19.2043C23.2262 19.0463 23.2771 18.8894 23.3811 18.7696L28.5799 12.7798C28.8133 12.5108 28.887 12.1479 28.7769 11.8091C28.6668 11.4703 28.3939 11.22 28.047 11.1396L20.321 9.35C20.1664 9.3142 20.033 9.21723 19.9512 9.08129L15.862 2.28541C15.6784 1.98014 15.3562 1.79791 15 1.79791Z" fill="white"/>
</g>
<defs>
<clipPath id="clip0_69_728">
<rect width="30" height="30" fill="white"/>
</clipPath>
</defs>
</svg>
