<svg width="30" height="30" viewBox="0 0 30 30" fill="none" xmlns="http://www.w3.org/2000/svg">
<path d="M27.5 9H25V5.5C25 5.224 24.776 5 24.5 5C20.991 5 17.557 6.379 15 8.799C12.443 6.379 9.009 5 5.5 5C5.224 5 5 5.224 5 5.5V9H2.5C2.224 9 2 9.224 2 9.5V24.5C2 24.776 2.224 25 2.5 25H27.5C27.776 25 28 24.776 28 24.5V9.5C28 9.224 27.776 9 27.5 9ZM24 20.009C20.886 20.125 17.871 21.331 15.5 23.367V9.718C17.771 7.474 20.832 6.138 24 6.011V20.009ZM6 6.01C9.168 6.137 12.229 7.474 14.5 9.717V23.367C12.129 21.331 9.114 20.124 6 20.009V6.01ZM3 10H5V20.5C5 20.776 5.224 21 5.5 21C8.49 21 11.422 22.082 13.719 24H3V10ZM27 24H16.281C18.578 22.082 21.51 21 24.5 21C24.776 21 25 20.776 25 20.5V10H27V24Z" fill="white"/>
</svg>
