<svg width="30" height="30" viewBox="0 0 30 30" fill="none" xmlns="http://www.w3.org/2000/svg">
<path d="M28.3893 29.1334H28.3913C28.6442 29.1334 28.8746 28.9846 28.9786 28.754C29.0829 28.5228 29.0415 28.2508 28.8731 28.0612L27.1443 26.1141C26.6892 25.5792 25.9287 25.4141 25.2925 25.7128C25.0679 25.8182 24.8692 25.978 24.7181 26.1748L24.5806 26.3537L23.7181 26.5078L20.8357 25.6955C19.8088 25.4062 18.7202 25.3955 17.6876 25.6651L17.452 25.7265L14.7854 22.9225C14.6859 22.0335 14.2838 21.2065 13.642 20.578L13.2277 20.1722C12.9459 18.7118 13.345 17.1758 14.3084 16.038L14.5743 15.724C14.9921 15.2671 15.2564 14.6814 15.3189 14.061L15.7636 14.1279L15.7253 14.2753C15.6045 14.7396 15.5892 15.2339 15.6812 15.7049C15.8986 16.8185 16.6978 17.7462 17.7669 18.126L18.0064 18.2111C18.0576 18.2292 18.1106 18.2381 18.1632 18.2381C18.2801 18.2381 18.395 18.1943 18.4832 18.1119C18.6112 17.9924 18.6618 17.8115 18.6146 17.6429L18.3409 16.6653C18.1877 16.1183 18.2836 15.5357 18.604 15.0666C19.0257 14.449 19.0608 13.6599 18.6955 13.0072L18.5922 12.8227C18.6793 12.5938 18.7258 12.3487 18.7258 12.0981C18.7258 11.3263 18.278 10.608 17.5851 10.2682L17.2868 10.1219L16.7732 9.81836L16.1618 9.17912L16.6448 8.57095C16.9056 8.24262 17.0961 7.85443 17.1965 7.44725L18.1549 4.46498L19.0891 3.78858C19.1775 3.72455 19.2408 3.63168 19.2681 3.52594L19.7149 1.79267C19.747 1.66856 19.7267 1.53678 19.659 1.42801C19.5913 1.31917 19.482 1.24284 19.3565 1.21675L17.3757 0.804703C17.1637 0.760131 16.9491 0.867358 16.8565 1.06317L15.8951 3.09575L13.3659 7.58224C13.1713 7.92728 13.0359 8.29978 12.9635 8.68928L12.3893 11.7789L10.31 12.393C9.35269 12.6757 8.72061 13.6027 8.8071 14.5972L8.87336 15.3596L8.81322 15.6533C8.53097 17.0314 8.52683 18.4746 8.79666 19.857L5.4145 18.7434C4.93654 18.5861 4.415 18.6 3.94659 18.7823L3.92108 18.7922C2.88241 19.1966 2.29885 20.2795 2.53354 21.367C2.88584 22.9994 3.42475 25.5109 3.61915 26.4175L2.52878 27.0166C2.07689 27.2649 1.87313 27.798 2.04413 28.284L2.0481 28.2954C2.19813 28.7217 2.60066 29.0074 3.05058 29.0074H3.05464C3.51254 29.0057 4.25535 29.0053 4.82364 29.0052C5.47916 29.005 6.08561 28.6779 6.44624 28.1298L6.45496 28.1165C6.70831 27.7314 6.82049 27.2682 6.77085 26.8123C6.68218 25.9984 6.51316 24.4431 6.40266 23.4263C7.21725 23.9305 8.06297 24.3915 8.92566 24.8015L9.38436 25.0195L15.2389 28.525C15.8102 28.8671 16.464 29.0512 17.1298 29.0576L28.3893 29.1334ZM24.9242 27.2447C25.0392 27.2241 25.1423 27.1614 25.2135 27.0688L25.4616 26.7459C25.5219 26.6673 25.6012 26.6035 25.6909 26.5614C25.9457 26.4419 26.2505 26.5085 26.432 26.7237C26.4346 26.7267 26.4371 26.7296 26.4397 26.7326L27.7373 28.1939L24.1049 28.1831L24.1443 27.384L24.9242 27.2447ZM9.67551 16.1425L12.3771 17.8171C12.2041 18.5144 12.1569 19.2428 12.246 19.9632L9.80244 20.0757C9.49519 18.7946 9.45245 17.442 9.67551 16.1425ZM17.8298 14.5379C17.3603 15.2254 17.2146 16.0769 17.4278 16.8802C17.0061 16.5454 16.7069 16.0663 16.6013 15.5252C16.5361 15.1912 16.5469 14.8407 16.6326 14.5113L16.7073 14.2239C17.1504 14.1968 17.5761 14.0257 17.9177 13.7292L17.9686 13.685C18.0509 13.9723 18.0038 14.2831 17.8298 14.5379ZM16.8657 12.1362L17.291 11.1783C17.5967 11.3798 17.7883 11.7273 17.7883 12.0981C17.7883 12.4172 17.6501 12.7202 17.4091 12.9294L17.3033 13.0212C17.0597 13.2326 16.7372 13.3263 16.4181 13.2783L15.3959 13.1245L15.4362 12.625L16.5295 12.4056C16.6786 12.3757 16.804 12.2753 16.8657 12.1362ZM16.4662 10.7259L16.1073 11.5342L15.5147 11.6531L15.6482 9.99856L16.1404 10.5131C16.17 10.544 16.2037 10.5708 16.2406 10.5926L16.4662 10.7259ZM13.8853 8.86066C13.9388 8.57284 14.0388 8.29761 14.1825 8.04264L16.72 3.54156C16.7255 3.53183 16.7307 3.52188 16.7355 3.5118L17.5462 1.79771L18.6844 2.03449L18.4024 3.12831L17.4808 3.79573C17.4 3.85421 17.3399 3.93701 17.3094 4.03199C17.3094 4.03199 16.292 7.1992 16.2892 7.2107C16.2217 7.49234 16.0908 7.76111 15.9107 7.98787L14.8409 9.33479C14.7831 9.40757 14.7482 9.49592 14.7408 9.58862L14.3904 13.9294C14.3567 14.3477 14.186 14.7445 13.9124 15.0577C13.9042 15.0661 13.7448 15.2309 13.6741 15.2882C13.3482 15.5524 12.8851 15.5889 12.5218 15.3793C12.2065 15.1974 12.0107 14.8582 12.011 14.494L12.0112 14.2703C12.0113 14.0445 12.0878 13.8221 12.2265 13.6438C12.2265 13.6438 13.1714 12.429 13.1735 12.4262C13.1807 12.4166 13.8853 8.86066 13.8853 8.86066ZM10.5756 13.292L11.584 12.8945C11.3179 13.2364 11.0739 13.8367 11.0737 14.2697L11.0735 14.4933C11.073 15.1917 11.4484 15.8424 12.0533 16.1914C12.3176 16.3438 12.6092 16.4284 12.9037 16.447C12.8237 16.5964 12.7507 16.7491 12.6841 16.9043L9.7929 15.1123L9.74106 14.516C9.69305 13.9638 10.044 13.4491 10.5756 13.292ZM5.66273 27.615C5.47631 27.8984 5.16254 28.0676 4.82345 28.0677C4.25417 28.0678 3.50998 28.0682 3.05116 28.0699H3.05067C2.99717 28.0699 2.95079 28.0363 2.9326 27.9846L2.92862 27.9733C2.9104 27.9215 2.93211 27.8647 2.98024 27.8383L4.2798 27.1243L5.84333 27.0614C5.83661 27.2519 5.77813 27.4395 5.67146 27.6017L5.66273 27.615ZM15.7205 27.7207C15.7205 27.7207 9.82062 24.1888 9.80709 24.1824L9.32807 23.9548C8.26838 23.4511 7.23506 22.8675 6.25679 22.2199L6.08922 22.109C6.01091 22.0572 5.92076 22.0311 5.83049 22.0311C5.74613 22.0311 5.66164 22.0539 5.58662 22.0996C5.43144 22.1941 5.34489 22.3698 5.36452 22.5505C5.36452 22.5505 5.59529 24.6749 5.7532 26.1268L4.52621 26.1761C4.32415 25.234 3.7967 22.776 3.44992 21.1692C3.31296 20.5344 3.65414 19.9021 4.26073 19.666L4.28628 19.6561C4.5529 19.5522 4.8495 19.5443 5.12133 19.6338C5.12133 19.6338 9.35937 21.0236 9.36767 21.0249C9.3734 21.0258 12.6154 20.8847 12.6154 20.8847L12.986 21.2477C13.5046 21.7556 13.817 22.4342 13.8655 23.1585C13.8728 23.2677 13.9181 23.3709 13.9935 23.4502L16.9631 26.5729C17.0807 26.6965 17.2562 26.7466 17.4212 26.7034L17.9243 26.5722C18.7958 26.3448 19.7147 26.3536 20.5814 26.5979L23.208 27.3381L23.1666 28.1773L17.1387 28.1201C16.6394 28.1153 16.149 27.9773 15.7205 27.7207Z" fill="white"/>
</svg>
