<svg width="30" height="30" viewBox="0 0 30 30" fill="none" xmlns="http://www.w3.org/2000/svg">
<path d="M12.2541 0.888911C11.4041 0.201548 10.2908 0.195981 9.61502 0.894888C8.81369 1.72545 8.81352 3.07833 9.61467 3.91077C9.61725 3.91346 9.61989 3.91616 9.62258 3.91879L11.7821 6.05846C11.7934 6.06971 11.8054 6.08032 11.8179 6.09022L11.8309 6.10065C11.9359 6.18432 12.0549 6.27918 12.236 6.28674C12.2421 6.28698 12.2482 6.28709 12.2543 6.28709C12.2601 6.28709 12.266 6.28698 12.2718 6.28674C12.4549 6.27942 12.5744 6.1842 12.6798 6.10012L12.6923 6.09022C12.7048 6.08026 12.7167 6.06959 12.7281 6.05834L14.6268 4.1745L14.8859 3.91879C14.8884 3.91627 14.8909 3.91375 14.8934 3.91118C15.6967 3.07856 15.6966 1.72528 14.8935 0.895005C14.2185 0.194985 13.1045 0.20061 12.2541 0.888911ZM14.2643 3.29729L12.2549 5.28965L10.499 3.54901L10.2443 3.29752C9.77065 2.80129 9.77164 1.99838 10.2472 1.50549C10.6663 1.0719 11.3465 1.24809 11.7744 1.63481C11.8058 1.66299 11.8311 1.6869 11.8519 1.70659C11.9391 1.78897 12.0585 1.90188 12.2542 1.90188C12.4517 1.90188 12.5698 1.7895 12.656 1.70741C12.6767 1.68772 12.7021 1.66346 12.7348 1.63411C13.1624 1.2478 13.8426 1.07137 14.2613 1.50567C14.7382 1.99862 14.7391 2.80135 14.2643 3.29729Z" fill="white"/>
<path d="M12.3368 13.3161C11.7499 13.091 11.0894 13.1847 10.5248 13.5729C10.4332 13.6359 10.3462 13.7049 10.2644 13.7792V8.3648C10.2644 7.5347 9.58908 6.85935 8.75898 6.85935C8.5355 6.85935 8.32316 6.90833 8.13226 6.99605C8.12048 6.17509 7.44976 5.51099 6.62699 5.51099C5.98574 5.51099 5.43677 5.91452 5.22027 6.48124C5.00505 6.36241 4.75779 6.29474 4.49505 6.29474C3.66402 6.29474 2.98796 6.97009 2.98796 7.80019V8.9948C2.84769 8.94417 2.69658 8.91663 2.53908 8.91663C1.79687 8.91663 1.1698 9.52548 1.1698 10.2462L1.17144 18.0099C1.17906 19.2026 1.54744 19.8701 1.92601 20.2794C1.67968 20.3959 1.50847 20.6461 1.50847 20.9361V24.3185C1.50847 24.5612 1.70523 24.758 1.94792 24.758C2.19062 24.758 2.38738 24.5612 2.38738 24.3185V21.0884H10.7188V29.1128H2.38738V26.5137C2.38738 26.271 2.19062 26.0742 1.94792 26.0742C1.70523 26.0742 1.50847 26.271 1.50847 26.5137V29.2651C1.50847 29.6658 1.83443 29.9918 2.23515 29.9918H10.8726C11.2724 29.9918 11.5977 29.6658 11.5977 29.2651V20.9361C11.5977 20.652 11.4337 20.406 11.196 20.2866C11.4978 19.7881 11.6977 19.269 11.7919 18.736C12.0617 17.2062 12.4436 16.2017 12.7224 15.4682C12.9253 14.9344 13.0594 14.5817 13.0617 14.2564C13.0647 13.8185 12.8209 13.5022 12.3368 13.3161ZM11.901 15.1558C11.6261 15.8789 11.2107 16.9716 10.9264 18.5832C10.8278 19.1412 10.5794 19.6873 10.188 20.2094H3.21707C3.14511 20.1452 3.06501 20.0874 2.98257 20.0278C2.59281 19.7466 2.05902 19.3614 2.05035 18.007L2.04871 10.2461C2.04871 10.0103 2.28244 9.7956 2.53908 9.7956C2.78658 9.7956 2.98796 9.99769 2.98796 10.2461V12.6704C2.98796 12.9131 3.18472 13.1098 3.42742 13.1098C3.67011 13.1098 3.86687 12.9131 3.86687 12.6704V7.80024C3.86687 7.45478 4.14865 7.1737 4.49505 7.1737C4.84052 7.1737 5.1216 7.45478 5.1216 7.80024V12.7567C5.1216 12.9994 5.31835 13.1961 5.56105 13.1961C5.80375 13.1961 6.0005 12.9994 6.0005 12.7567V7.01813C6.0005 6.67173 6.28158 6.38989 6.62705 6.38989C6.97251 6.38989 7.25359 6.67173 7.25359 7.01813V12.3864C7.25359 12.6291 7.45035 12.8258 7.69304 12.8258C7.93574 12.8258 8.1325 12.6291 8.1325 12.3864V8.36474C8.1325 8.01927 8.41357 7.73819 8.75904 7.73819C9.10451 7.73819 9.38558 8.01927 9.38558 8.36474V15.5848C8.43712 16.0988 7.58552 16.9675 7.38584 17.6514C7.31781 17.8843 7.45152 18.1283 7.68449 18.1964C7.72562 18.2084 7.76705 18.2141 7.80783 18.2141C7.99808 18.2141 8.17345 18.0896 8.22947 17.8977C8.34226 17.5115 9.04129 16.7037 10.0102 16.2536C10.1631 16.1826 10.2645 16.0236 10.2645 15.855C10.2645 15.2059 10.548 14.6234 11.0227 14.297C11.3454 14.0752 11.7096 14.0167 12.0218 14.1365C12.1354 14.1802 12.1729 14.2132 12.1814 14.2219C12.2113 14.3395 12.0465 14.773 11.901 15.1558Z" fill="white"/>
<path d="M28.0352 20.9512C27.7421 20.6479 27.3843 20.4477 26.9964 20.3481V16.8347C26.9964 16.5209 26.8067 16.2509 26.5363 16.1331C26.8782 15.5787 27.1036 15.0019 27.2072 14.4105C27.5034 12.7345 27.9219 11.6337 28.2275 10.8299C28.4479 10.2501 28.5936 9.86695 28.5961 9.51861C28.5994 9.05842 28.3418 8.72549 27.8301 8.52896C27.2017 8.28785 26.4937 8.38857 25.8878 8.80518C25.763 8.8909 25.6464 8.98705 25.5386 9.09217V3.07793C25.5386 2.19287 24.8185 1.47281 23.9335 1.47281C23.6723 1.47281 23.4255 1.53551 23.2073 1.64666V1.60506C23.2073 0.720059 22.4873 0 21.6023 0C20.9011 0 20.3034 0.451055 20.0846 1.07795C19.8455 0.936387 19.5668 0.855117 19.2694 0.855117C18.3844 0.855117 17.6644 1.57518 17.6644 2.46023V3.82682C17.5001 3.75973 17.3205 3.72275 17.1325 3.72275C16.3426 3.72275 15.6752 4.36881 15.6752 5.13375L15.6785 13.6228C15.6863 14.9575 16.1116 15.6842 16.5348 16.1223C16.2499 16.2334 16.0471 16.5105 16.0471 16.8348V22.2529C16.0471 22.4955 16.2439 22.6923 16.4866 22.6923C16.7293 22.6923 16.926 22.4955 16.926 22.2529V16.9488H17.66C17.6603 16.9488 17.6606 16.9489 17.6609 16.9489C17.6612 16.9489 17.6615 16.9488 17.6618 16.9488H26.1175V20.2909C25.5473 20.3553 24.9663 20.6096 24.4632 21.0514C23.3287 20.0556 21.8005 20.0101 20.8927 20.9513C19.833 22.0485 19.8329 23.8351 20.8925 24.934C20.8948 24.9364 20.8972 24.9388 20.8995 24.9412L23.9247 27.9399C23.936 27.951 23.9478 27.9616 23.9602 27.9715L23.9834 27.9901C24.121 28.1001 24.2511 28.204 24.4503 28.2098C24.4546 28.21 24.4589 28.21 24.4632 28.21C24.4673 28.21 24.4716 28.21 24.4757 28.2098C24.6757 28.2041 24.8084 28.0979 24.9367 27.995L24.9662 27.9714C24.9786 27.9616 24.9905 27.951 25.0017 27.9398L26.1175 26.8338V29.1211H16.926V24.282C16.926 24.0393 16.7292 23.8425 16.4865 23.8425C16.2438 23.8425 16.0471 24.0393 16.0471 24.282V29.2351C16.0471 29.6569 16.3894 30 16.8103 30H26.2331C26.654 30 26.9964 29.6569 26.9964 29.2351V25.9625L28.0278 24.9419C28.0304 24.9393 28.033 24.9367 28.0355 24.934C29.0952 23.8351 29.0951 22.0484 28.0352 20.9512ZM25.5156 16.0699H17.857C17.7768 15.9968 17.6864 15.9311 17.5929 15.8636C17.1596 15.5508 16.5661 15.1224 16.5574 13.62L16.554 5.13357C16.554 4.8552 16.8297 4.60166 17.1324 4.60166C17.4257 4.60166 17.6643 4.84025 17.6643 5.13357V7.78699C17.6643 8.02969 17.8611 8.22645 18.1038 8.22645C18.3465 8.22645 18.5432 8.02969 18.5432 7.78699V2.46023C18.5432 2.0598 18.869 1.73402 19.2694 1.73402C19.6697 1.73402 19.9955 2.0598 19.9955 2.46023V7.87998C19.9955 8.12268 20.1923 8.31943 20.435 8.31943C20.6777 8.31943 20.8744 8.12268 20.8744 7.87998V1.60512C20.8744 1.20469 21.2009 0.878906 21.6022 0.878906C22.0026 0.878906 22.3284 1.20469 22.3284 1.60512V7.4748C22.3284 7.7175 22.5251 7.91426 22.7678 7.91426C23.0105 7.91426 23.2073 7.7175 23.2073 7.4748V3.07793C23.2073 2.6775 23.5331 2.35172 23.9334 2.35172C24.3338 2.35172 24.6596 2.6775 24.6596 3.07793V10.9961C23.6222 11.5511 22.6878 12.4987 22.4705 13.2429C22.4025 13.4759 22.5363 13.72 22.7692 13.7879C22.8104 13.7999 22.8518 13.8056 22.8926 13.8056C23.0828 13.8056 23.2582 13.6811 23.3142 13.4892C23.4397 13.0593 24.2134 12.1625 25.284 11.6659C25.437 11.5949 25.5385 11.436 25.5385 11.2672C25.5385 10.5438 25.8552 9.89408 26.3856 9.52939C26.7494 9.27932 27.1612 9.21369 27.5151 9.34951C27.7177 9.42732 27.7175 9.46482 27.7171 9.51223C27.7157 9.70248 27.579 10.0622 27.4059 10.5176C27.1058 11.307 26.6524 12.4997 26.3415 14.2582C26.2328 14.8792 25.9549 15.4877 25.5156 16.0699ZM27.4065 24.3202L24.4632 27.2361L21.5218 24.3205C20.7902 23.5579 20.7911 22.3215 21.5251 21.5617C22.1867 20.8756 23.2469 21.1385 23.9091 21.7348C23.9554 21.7764 23.9923 21.8116 24.0224 21.8402C24.1271 21.9398 24.2567 22.0631 24.4604 22.0631H24.466C24.6697 22.0631 24.7993 21.9398 24.904 21.8402C24.9341 21.8115 24.971 21.7763 25.0179 21.7342C25.4252 21.3675 25.9838 21.1274 26.5078 21.1568C26.5193 21.1581 26.531 21.1586 26.5428 21.159C26.8571 21.184 27.1575 21.3077 27.4032 21.5619C28.1368 22.3214 28.1378 23.5576 27.4065 24.3202Z" fill="white"/>
</svg>
