<svg width="17" height="17" viewBox="0 0 17 17" fill="none" xmlns="http://www.w3.org/2000/svg">
<path d="M7.95842 11.3398L5.81897 9.2003C5.60744 8.98877 5.26447 8.98877 5.05294 9.20031C4.8414 9.41184 4.8414 9.7548 5.05294 9.96634L8.11707 13.0305C8.3286 13.242 8.67157 13.242 8.8831 13.0305L11.9472 9.96634C12.1588 9.7548 12.1588 9.41184 11.9472 9.2003C11.7357 8.98877 11.3927 8.98877 11.1812 9.2003L9.04175 11.3398V4.16667C9.04175 3.86751 8.79924 3.625 8.50008 3.625C8.20093 3.625 7.95842 3.86751 7.95842 4.16667L7.95842 11.3398Z" fill="#363636"/>
<circle cx="8.5" cy="8.5" r="8" stroke="#363636"/>
</svg>
