<svg width="53" height="53" viewBox="0 0 53 53" fill="none" xmlns="http://www.w3.org/2000/svg">
<path d="M44.63 18.13C44.63 8.11707 36.5129 0 26.5 0C16.4871 0 8.37 8.11707 8.37 18.13C5.78144 18.4523 3.33389 20.1444 3.33389 24.0726V33.5405C3.33389 37.9723 6.43614 39.5838 9.37722 39.5838H12.2982C12.8544 39.5838 13.3054 39.1328 13.3054 38.5766V19.0768C13.3054 18.5205 12.8544 18.0696 12.2982 18.0696H10.3844C10.3844 9.16924 17.5997 1.95401 26.5 1.95401C35.4003 1.95401 42.6155 9.16924 42.6155 18.0696H40.7018C40.1456 18.0696 39.6946 18.5205 39.6946 19.0768V38.5464C39.6946 39.1026 40.1456 39.5536 40.7018 39.5536H42.6155C42.3335 46.4732 39.0097 48.0948 32.3721 48.3869V47.7121C32.3721 46.5995 31.4703 45.6976 30.3577 45.6976H24.0222C22.9096 45.6976 22.0078 46.5995 22.0078 47.7121V50.9856C22.0078 52.0982 22.9096 53 24.0222 53H30.3778C31.4904 53 32.3922 52.0982 32.3922 50.9856V50.4014C38.778 50.1093 44.2976 48.7898 44.63 39.4932C47.2185 39.1708 49.6661 37.4787 49.6661 33.5506V24.0827C49.6661 20.1344 47.2286 18.4523 44.63 18.13ZM11.2909 20.0135V37.5392H9.32686C7.83617 37.5392 5.29798 37.0154 5.29798 33.5103V24.0424C5.29798 20.5675 7.80596 20.0135 9.32686 20.0135H11.2909ZM30.3778 49.4647V50.9956H24.0222V47.7222H30.3778V49.4647ZM47.6516 33.5405C47.6516 37.0154 45.1437 37.5694 43.6228 37.5694H41.709V20.084H43.6731C45.1638 20.084 47.702 20.6078 47.702 24.1129L47.6516 33.5405Z" fill="white"/>
</svg>
