<svg width="25" height="61" viewBox="0 0 25 61" fill="none" xmlns="http://www.w3.org/2000/svg">
<path d="M23.9132 49.3563C23.6776 49.0111 23.2254 48.8882 22.8479 49.0672C18.6711 51.0444 13.9305 53.1349 13 53.3175C12.9766 53.2966 12.9394 53.2584 12.8906 53.1923C12.7645 53.0216 12.7032 52.7985 12.7032 52.5101C12.7032 50.1475 14.4864 42.9601 18.0031 31.1488C20.9683 21.2248 21.3112 19.17 21.3112 18.4878C21.3112 17.4347 20.908 16.5449 20.1447 15.9143C19.4197 15.3164 18.4067 15.0134 17.134 15.0134C15.0171 15.0134 12.5635 15.8171 9.63302 17.4705C6.79326 19.0733 3.62624 21.788 0.220496 25.5392C-0.0460985 25.833 -0.0739651 26.2722 0.153379 26.5975C0.381063 26.9228 0.803297 27.0467 1.17048 26.8972C2.36616 26.4092 8.37515 23.9477 9.25106 23.3975C9.96826 22.9479 10.5891 22.7197 11.0965 22.7197C11.1147 22.7197 11.1303 22.7204 11.1434 22.7214C11.1495 22.755 11.1553 22.8063 11.1553 22.8799C11.1553 23.3976 11.0487 24.0105 10.8399 24.6985C5.71941 41.289 3.23034 51.4595 3.23034 55.7916C3.23034 57.3205 3.6553 58.5514 4.49314 59.4496C5.34696 60.3659 6.49863 60.8304 7.91622 60.8304C9.42692 60.8304 11.2656 60.1994 13.537 58.9012C15.735 57.6452 19.0897 54.8823 23.7934 50.4536C24.0981 50.167 24.1489 49.7016 23.9132 49.3563Z" fill="white"/>
<path d="M23.749 1.29083C22.9122 0.434299 21.8414 0 20.5667 0C18.9797 0 17.5974 0.627151 16.4588 1.86412C15.3384 3.0807 14.7702 4.57356 14.7702 6.30107C14.7702 7.66599 15.1887 8.7971 16.014 9.66281C16.8503 10.5416 17.9067 10.9871 19.1533 10.9871C20.6754 10.9871 22.0502 10.3248 23.2392 9.0185C24.4076 7.73514 25 6.22631 25 4.53397C25.0002 3.23345 24.5793 2.14244 23.749 1.29083Z" fill="white"/>
</svg>
