<svg width="34" height="34" viewBox="0 0 34 34" fill="none" xmlns="http://www.w3.org/2000/svg">
<circle cx="17" cy="17" r="17" fill="#0368FF"/>
<path d="M17.3191 19.1342C19.7788 19.1342 21.7728 17.1402 21.7728 14.6805C21.7728 12.2208 19.7788 10.2268 17.3191 10.2268C14.8593 10.2268 12.8654 12.2208 12.8654 14.6805C12.8654 17.1402 14.8593 19.1342 17.3191 19.1342Z" fill="#FFD600"/>
<path d="M17.6538 9.00215C17.6538 9.18662 17.5041 9.33623 17.3197 9.33623C17.1352 9.33623 16.9856 9.18662 16.9856 9.00215C16.9856 8.81767 17.3197 8 17.3197 8C17.3197 8 17.6538 8.81767 17.6538 9.00215Z" fill="#FFD600"/>
<path d="M16.9857 20.36C16.9857 20.1755 17.1353 20.0259 17.3198 20.0259C17.5043 20.0259 17.6539 20.1755 17.6539 20.36C17.6539 20.5444 17.3198 21.3621 17.3198 21.3621C17.3198 21.3621 16.9857 20.5445 16.9857 20.36Z" fill="#FFD600"/>
<path d="M22.9985 15.0151C22.814 15.0151 22.6644 14.8655 22.6644 14.681C22.6644 14.4965 22.814 14.3469 22.9985 14.3469C23.183 14.3469 24.0007 14.681 24.0007 14.681C24.0007 14.681 23.183 15.0151 22.9985 15.0151Z" fill="#FFD600"/>
<path d="M11.6408 14.3469C11.8253 14.3469 11.9749 14.4965 11.9749 14.681C11.9749 14.8655 11.8253 15.0151 11.6408 15.0151C11.4563 15.0151 10.6387 14.681 10.6387 14.681C10.6387 14.681 11.4563 14.3469 11.6408 14.3469Z" fill="#FFD600"/>
<path d="M21.5714 10.9017C21.441 11.0322 21.2296 11.0322 21.099 10.9017C20.9684 10.7712 20.9685 10.5598 21.099 10.4292C21.2295 10.2987 22.0438 9.95679 22.0438 9.95679C22.0438 9.95679 21.702 10.7712 21.5714 10.9017Z" fill="#FFD600"/>
<path d="M13.0679 18.4604C13.1984 18.3299 13.4098 18.3299 13.5404 18.4604C13.671 18.5909 13.6709 18.8023 13.5404 18.9329C13.4099 19.0634 12.5956 19.4052 12.5956 19.4052C12.5956 19.4052 12.9375 18.591 13.0679 18.4604Z" fill="#FFD600"/>
<path d="M21.0992 18.9327C20.9687 18.8022 20.9687 18.5908 21.0992 18.4602C21.2297 18.3296 21.4411 18.3297 21.5717 18.4602C21.7022 18.5907 22.0441 19.405 22.0441 19.405C22.0441 19.405 21.2297 19.063 21.0992 18.9327Z" fill="#FFD600"/>
<path d="M13.5404 10.4292C13.6708 10.5596 13.6708 10.771 13.5404 10.9016C13.4099 11.0322 13.1985 11.0321 13.0679 10.9016C12.9374 10.7711 12.5955 9.95679 12.5955 9.95679C12.5955 9.95679 13.4099 10.2988 13.5404 10.4292Z" fill="#FFD600"/>
<path d="M15.4552 9.30644C15.5259 9.47695 15.4449 9.67226 15.2744 9.74287C15.1039 9.81347 14.9086 9.73252 14.838 9.56201C14.7674 9.3915 14.7631 8.5083 14.7631 8.5083C14.7631 8.5083 15.3846 9.13594 15.4552 9.30644Z" fill="#FFD600"/>
<path d="M19.1845 20.0554C19.1138 19.8849 19.1948 19.6896 19.3653 19.619C19.5358 19.5484 19.7311 19.6294 19.8017 19.7999C19.8723 19.9704 19.8766 20.8536 19.8766 20.8536C19.8766 20.8536 19.255 20.226 19.1845 20.0554Z" fill="#FFD600"/>
<path d="M22.6941 12.8165C22.5236 12.8871 22.3283 12.8061 22.2577 12.6356C22.1871 12.4651 22.268 12.2698 22.4386 12.1992C22.6091 12.1286 23.4922 12.1243 23.4922 12.1243C23.4922 12.1243 22.8646 12.7458 22.6941 12.8165Z" fill="#FFD600"/>
<path d="M11.9454 16.5455C12.1159 16.4749 12.3112 16.5559 12.3818 16.7264C12.4524 16.8969 12.3714 17.0922 12.2009 17.1628C12.0304 17.2334 11.1472 17.2377 11.1472 17.2377C11.1472 17.2377 11.7749 16.6162 11.9454 16.5455Z" fill="#FFD600"/>
<path d="M19.8016 9.56216C19.731 9.73266 19.5356 9.81352 19.3651 9.74302C19.1946 9.67241 19.1138 9.477 19.1843 9.30659C19.2549 9.13618 19.8764 8.50854 19.8764 8.50854C19.8764 8.50854 19.8722 9.39175 19.8016 9.56216Z" fill="#FFD600"/>
<path d="M14.8379 19.7998C14.9085 19.6293 15.1039 19.5485 15.2743 19.619C15.4448 19.6896 15.5257 19.885 15.4552 20.0554C15.3845 20.2259 14.7631 20.8534 14.7631 20.8534C14.7631 20.8534 14.7673 19.9703 14.8379 19.7998Z" fill="#FFD600"/>
<path d="M22.4386 17.1628C22.2681 17.0922 22.1873 16.8968 22.2578 16.7264C22.3284 16.5558 22.5238 16.475 22.6942 16.5455C22.8646 16.616 23.4922 17.2376 23.4922 17.2376C23.4922 17.2376 22.6089 17.2335 22.4386 17.1628Z" fill="#FFD600"/>
<path d="M12.201 12.1993C12.3715 12.2699 12.4523 12.4653 12.3818 12.6357C12.3112 12.8062 12.1158 12.8871 11.9454 12.8166C11.775 12.746 11.1473 12.1245 11.1473 12.1245C11.1473 12.1245 12.0306 12.1286 12.201 12.1993Z" fill="#FFD600"/>
<path d="M16.5396 9.04619C16.5756 9.22715 16.4582 9.40302 16.2771 9.43896C16.0962 9.475 15.9203 9.35752 15.8843 9.17646C15.8483 8.99551 16.0165 8.12842 16.0165 8.12842C16.0165 8.12842 16.5036 8.86523 16.5396 9.04619Z" fill="#FFD600"/>
<path d="M18.1 20.3158C18.064 20.1348 18.1814 19.9589 18.3625 19.923C18.5436 19.887 18.7193 20.0044 18.7553 20.1855C18.7913 20.3665 18.6231 21.2335 18.6231 21.2335C18.6231 21.2335 18.1359 20.4967 18.1 20.3158Z" fill="#FFD600"/>
<path d="M22.9547 13.9006C22.7737 13.9366 22.5979 13.8191 22.5619 13.6381C22.5259 13.457 22.6434 13.2812 22.8244 13.2453C23.0054 13.2093 23.8725 13.3774 23.8725 13.3774C23.8725 13.3774 23.1356 13.8646 22.9547 13.9006Z" fill="#FFD600"/>
<path d="M11.6849 15.4613C11.8658 15.4253 12.0417 15.5428 12.0776 15.7238C12.1137 15.9049 11.9962 16.0807 11.8151 16.1166C11.6342 16.1526 10.7671 15.9845 10.7671 15.9845C10.7671 15.9845 11.5039 15.4973 11.6849 15.4613Z" fill="#FFD600"/>
<path d="M20.7526 10.1449C20.6502 10.2983 20.4426 10.3395 20.2892 10.237C20.1358 10.1345 20.0946 9.92705 20.1971 9.77363C20.2996 9.62021 21.0316 9.12598 21.0316 9.12598C21.0316 9.12598 20.855 9.99141 20.7526 10.1449Z" fill="#FFD600"/>
<path d="M13.8869 19.2171C13.9894 19.0637 14.1969 19.0224 14.3503 19.125C14.5037 19.2274 14.5449 19.4349 14.4424 19.5884C14.3399 19.7418 13.6079 20.236 13.6079 20.236C13.6079 20.236 13.7845 19.3706 13.8869 19.2171Z" fill="#FFD600"/>
<path d="M21.856 18.1138C21.7026 18.0114 21.6614 17.8038 21.7639 17.6504C21.8664 17.497 22.0739 17.4558 22.2273 17.5583C22.3807 17.6608 22.8749 18.3928 22.8749 18.3928C22.8749 18.3928 22.0094 18.2162 21.856 18.1138Z" fill="#FFD600"/>
<path d="M12.7836 11.2482C12.937 11.3507 12.9782 11.5582 12.8757 11.7116C12.7732 11.865 12.5657 11.9062 12.4123 11.8037C12.2589 11.7012 11.7646 10.9692 11.7646 10.9692C11.7646 10.9692 12.6303 11.1458 12.7836 11.2482Z" fill="#FFD600"/>
<path d="M14.4424 9.77353C14.5448 9.92695 14.5036 10.1344 14.3503 10.2369C14.197 10.3395 13.9895 10.2981 13.8869 10.1448C13.7845 9.9914 13.6079 9.12598 13.6079 9.12598C13.6079 9.12598 14.3399 9.62021 14.4424 9.77353Z" fill="#FFD600"/>
<path d="M20.1969 19.5885C20.0945 19.4351 20.1357 19.2277 20.289 19.1252C20.4423 19.0227 20.6499 19.0639 20.7524 19.2172C20.8548 19.3707 21.0314 20.2361 21.0314 20.2361C21.0314 20.2361 20.2995 19.7419 20.1969 19.5885Z" fill="#FFD600"/>
<path d="M22.2272 11.8037C22.0738 11.9062 21.8664 11.8649 21.7638 11.7116C21.6614 11.5582 21.7026 11.3508 21.8559 11.2482C22.0093 11.1458 22.8748 10.9692 22.8748 10.9692C22.8748 10.9692 22.3806 11.7013 22.2272 11.8037Z" fill="#FFD600"/>
<path d="M12.4123 17.5583C12.5657 17.4558 12.7732 17.497 12.8757 17.6504C12.9781 17.8038 12.9369 18.0112 12.7836 18.1137C12.6302 18.2162 11.7648 18.3927 11.7648 18.3927C11.7648 18.3927 12.2589 17.6607 12.4123 17.5583Z" fill="#FFD600"/>
<path d="M18.7553 9.17646C18.7192 9.35742 18.5435 9.475 18.3625 9.43896C18.1815 9.40293 18.064 9.22715 18.1 9.04619C18.136 8.86523 18.6231 8.12842 18.6231 8.12842C18.6231 8.12842 18.7912 8.99551 18.7553 9.17646Z" fill="#FFD600"/>
<path d="M15.8842 20.1855C15.9202 20.0045 16.096 19.887 16.277 19.923C16.4579 19.959 16.5755 20.1348 16.5395 20.3158C16.5034 20.4967 16.0163 21.2335 16.0163 21.2335C16.0163 21.2335 15.8483 20.3665 15.8842 20.1855Z" fill="#FFD600"/>
<path d="M22.8243 16.1166C22.6433 16.0806 22.5258 15.9048 22.5618 15.7238C22.5978 15.5429 22.7736 15.4253 22.9546 15.4613C23.1355 15.4974 23.8723 15.9845 23.8723 15.9845C23.8723 15.9845 23.0052 16.1525 22.8243 16.1166Z" fill="#FFD600"/>
<path d="M11.8151 13.2453C11.9961 13.2813 12.1137 13.4571 12.0776 13.638C12.0416 13.819 11.8658 13.9366 11.6849 13.9005C11.5039 13.8645 10.7671 13.3774 10.7671 13.3774C10.7671 13.3774 11.6342 13.2093 11.8151 13.2453Z" fill="#FFD600"/>
<path d="M27.7963 15.8529C27.6658 15.798 27.5167 15.8609 27.4623 15.9906C27.4623 15.9912 27.4623 15.9912 27.4623 15.9912C27.4613 15.9936 27.4562 16.0056 27.4475 16.0261C27.2545 16.4771 26.8551 17.1362 26.4517 17.7562C26.8274 16.5469 27.1709 15.2553 27.1948 15.1645C27.2306 15.0288 27.1504 14.8896 27.0149 14.8528C26.8793 14.8163 26.7398 14.8953 26.7018 15.0303C26.5265 15.6584 26.168 16.4851 25.8373 17.1849C25.8979 16.4046 25.9094 15.6818 25.9101 15.6294C25.9122 15.4912 25.8039 15.377 25.6657 15.3704C25.5357 15.3745 25.4103 15.4693 25.4001 15.6074C25.073 20.1062 20.744 22.1187 20.3225 22.3038C20.102 22.3258 19.0748 22.4415 18.1425 22.7653C18.0368 22.802 17.9468 22.8388 17.8571 22.8753C17.8238 22.8628 17.7881 22.8558 17.7505 22.858C14.889 23.0651 12.6073 21.8912 10.9675 19.3764C9.72852 17.4762 9.33995 15.4817 9.33614 15.4618C9.30997 15.3231 9.17716 15.2337 9.0379 15.2582C8.89923 15.2846 8.80811 15.4178 8.83438 15.5565C8.84473 15.6116 9.01524 16.4822 9.48477 17.628C8.85655 16.6363 8.41876 15.4349 8.26466 14.8092C8.26153 14.7967 8.25352 14.7872 8.24884 14.7757C8.24161 14.758 8.23556 14.7403 8.22491 14.7249C8.21739 14.7141 8.20753 14.7062 8.19864 14.6967C8.18468 14.682 8.1713 14.6675 8.15421 14.6565C8.14444 14.6501 8.13351 14.647 8.12286 14.642C8.10401 14.6332 8.08556 14.6246 8.06456 14.6205C8.05001 14.6177 8.03517 14.6196 8.02003 14.6193C8.0047 14.6191 7.99024 14.6152 7.97452 14.6179C7.9711 14.6185 7.96847 14.6208 7.96505 14.6216C7.96173 14.6223 7.9586 14.6212 7.95528 14.6219C7.94161 14.6252 7.93116 14.6338 7.91866 14.6392C7.90274 14.6461 7.88644 14.6513 7.87247 14.661C7.8587 14.6704 7.84845 14.6828 7.83702 14.6946C7.8256 14.7063 7.81368 14.7166 7.8047 14.7302C7.79562 14.744 7.79073 14.7595 7.78429 14.7748C7.77814 14.7898 7.77101 14.8038 7.76778 14.82C7.76446 14.8365 7.76593 14.8535 7.76603 14.8707C7.76603 14.8845 7.76222 14.8977 7.76466 14.9118C7.76564 14.9178 7.76759 14.9239 7.76866 14.9297V14.9307C7.76896 14.9318 7.76935 14.9332 7.76964 14.9344C7.92765 15.8654 8.30421 16.8304 8.64473 17.5663C8.10401 16.9528 7.65216 16.2458 7.492 15.8272C7.48741 15.815 7.47814 15.8065 7.47189 15.7955C7.46241 15.7787 7.45411 15.7614 7.44132 15.7474C7.43224 15.7374 7.4212 15.731 7.41085 15.7227C7.39532 15.7102 7.38058 15.6976 7.36261 15.689C7.35108 15.6835 7.33858 15.6818 7.32638 15.678C7.30753 15.6723 7.28927 15.6661 7.26925 15.6648C7.25353 15.6637 7.2379 15.6677 7.22198 15.6698C7.20724 15.6716 7.19269 15.6698 7.17804 15.6744C7.17521 15.6752 7.17325 15.6775 7.17062 15.6785C7.16788 15.6793 7.16515 15.6787 7.16241 15.6798C7.14855 15.6851 7.13868 15.6954 7.12628 15.7027C7.11173 15.7113 7.0962 15.7184 7.0838 15.7295C7.07111 15.741 7.06232 15.7551 7.05235 15.7687C7.04288 15.7815 7.03234 15.7929 7.0253 15.8072C7.01798 15.8221 7.01525 15.8383 7.01105 15.8544C7.00685 15.8702 7.00128 15.8848 7.00021 15.9013C6.99903 15.9178 7.00314 15.9343 7.00528 15.951C7.00714 15.9655 7.00519 15.9798 7.00968 15.9941C7.28761 16.8906 7.95597 17.9572 8.4796 18.7085C8.04327 18.3723 7.72257 18.0086 7.6295 17.8989C7.61944 17.8869 7.60958 17.8749 7.59952 17.863C7.50948 17.7547 7.3504 17.7393 7.24132 17.8276C7.13263 17.9163 7.11554 18.0761 7.20343 18.1852C7.20821 18.1912 7.22736 18.2152 7.25939 18.2526C7.64259 18.7085 8.06007 19.134 8.43829 19.4933L7.92091 19.2728C7.80294 19.2219 7.66427 19.2678 7.59972 19.38C7.53507 19.4923 7.56427 19.6344 7.66778 19.7122C7.71817 19.7496 8.63438 20.4341 9.42755 20.8387C9.35274 20.8432 9.26495 20.8377 9.16671 20.8302C9.04678 20.8187 8.92882 20.9045 8.89962 21.0262C8.87091 21.1484 8.93477 21.2732 9.05079 21.321C9.07032 21.329 9.31202 21.4287 9.61046 21.535C9.54083 21.5634 9.48546 21.6218 9.46251 21.6976C9.42813 21.8109 9.47647 21.9336 9.57921 21.9924C9.60596 22.0079 9.967 22.215 10.4138 22.3985C10.4019 22.4169 10.3921 22.4368 10.3848 22.4588C10.3498 22.566 10.3898 22.6838 10.4828 22.7482C10.5604 22.8015 12.2952 23.9788 14.3214 23.9788C14.4544 23.9788 14.5888 23.9738 14.7239 23.9629C14.8644 23.9519 14.9694 23.8287 14.9582 23.688C14.947 23.5473 14.825 23.441 14.6831 23.454C13.4103 23.5578 12.184 23.0799 11.4547 22.7147C11.551 22.6911 11.6063 22.6698 11.6201 22.6643C11.7326 22.6184 11.7975 22.5001 11.7755 22.3809C11.7535 22.2617 11.6508 22.1743 11.5293 22.1718C11.2332 22.1657 10.8231 22.0216 10.4699 21.8669C10.6033 21.8001 10.6813 21.7362 10.6881 21.7307C10.7649 21.6663 10.7974 21.5636 10.7712 21.4668C10.7448 21.3705 10.6644 21.2982 10.5657 21.2823C10.4572 21.2643 10.322 21.2293 10.1804 21.1865C10.3181 21.1072 10.3767 21.0199 10.3991 20.9754C10.4346 20.9046 10.4354 20.8217 10.4014 20.7504C10.3672 20.6791 10.3022 20.6277 10.2247 20.6112C10.1579 20.5967 10.0822 20.5723 10.0005 20.5404C10.0154 20.5254 10.0292 20.5084 10.0403 20.489C10.1054 20.3787 10.0785 20.237 9.97755 20.1577C9.97227 20.1537 9.77403 19.9982 9.47383 19.7392C9.52149 19.7217 9.56358 19.6893 9.59405 19.6454C9.65841 19.5527 9.65401 19.4284 9.58331 19.3406C9.57764 19.3335 9.37911 19.0839 9.10548 18.7048C9.19581 18.7749 9.28604 18.8466 9.37628 18.9046C9.41876 18.9316 9.4668 18.9451 9.51446 18.9451C9.57911 18.9451 9.64288 18.9206 9.692 18.8732C9.71221 18.8536 9.72803 18.8312 9.74053 18.8073C9.89551 18.9728 10.0583 19.1231 10.2293 19.2513C10.2516 19.268 10.2786 19.2677 10.3036 19.2761C10.3761 19.3976 10.4515 19.5193 10.5306 19.6409C12.0816 22.0275 14.2687 23.3058 16.8917 23.3825C16.6502 23.5292 16.388 23.6808 15.9728 23.8425C15.8822 23.8779 15.8021 23.9132 15.7217 23.9487C15.6828 23.9563 15.6464 23.9703 15.616 23.9945C14.8914 24.3299 14.5914 24.6613 14.4697 24.8932C14.3482 25.1237 14.453 25.3601 14.6014 25.4828C14.6475 25.5207 14.7061 25.5402 14.7649 25.5402C14.8054 25.5402 14.8458 25.5312 14.8824 25.5127C14.9728 25.4678 15.0331 25.3725 15.0291 25.2723C15.0395 25.2609 15.084 25.2239 15.2231 25.2194C15.3246 25.2109 15.5382 25.2338 15.7874 25.2537C16.0245 25.2733 16.3089 25.2954 16.6112 25.311C16.4221 25.5315 16.2022 25.787 16.2022 25.787C16.1362 25.8639 16.1217 25.9726 16.1656 26.0639C16.2098 26.1557 16.3049 26.2126 16.4046 26.209C16.6064 26.202 16.7435 26.198 16.8336 26.1961C16.9121 26.2989 17.0085 26.3398 17.0706 26.3557C17.2463 26.4006 17.4214 26.3303 17.5532 26.247C17.653 26.3189 17.7528 26.3492 17.8319 26.3608C18.0102 26.3852 18.1754 26.3333 18.2948 26.2744C18.4185 26.3543 18.5397 26.3747 18.6321 26.3747C18.6334 26.3747 18.6349 26.3747 18.6363 26.3747C18.8356 26.3737 19.01 26.2775 19.1334 26.1831C19.2425 26.248 19.3467 26.2689 19.4272 26.2725C19.6101 26.2789 19.7617 26.2086 19.8625 26.1427C20.2224 26.215 20.5327 26.0454 20.7378 25.8583C20.8313 25.9127 20.9203 25.9262 20.9912 25.9227C21.1735 25.9162 21.3124 25.8054 21.4015 25.7062C21.8097 25.7555 22.1025 25.6802 22.2718 25.4792C22.364 25.3699 22.4015 25.2468 22.4117 25.1345C23.5439 25.128 23.6464 24.5099 23.6547 24.4335C23.6621 24.3641 23.641 24.2948 23.5959 24.2415C23.551 24.1882 23.4858 24.1552 23.4163 24.1512L20.4479 23.9727C20.3237 23.9637 20.2129 24.047 20.1841 24.1683C20.1835 24.1702 20.1329 24.3588 19.9746 24.5096C19.7615 24.713 19.4184 24.8204 19.0453 24.8774C19.0467 24.8432 19.0419 24.8084 19.0288 24.7744C18.9779 24.6428 18.8298 24.5788 18.6985 24.6283C18.0857 24.8661 17.0935 24.8363 16.3174 24.7822C16.4364 24.685 16.5798 24.5886 16.6943 24.5257C16.7911 24.4724 16.8431 24.3631 16.8226 24.2544C16.8077 24.1754 16.7506 24.1204 16.6816 24.0851C16.8975 23.9761 17.0744 23.8708 17.2423 23.7685C17.5337 23.59 17.809 23.4217 18.3103 23.2477C19.2781 22.9114 20.3981 22.8092 20.4094 22.8081C20.4348 22.8061 20.4598 22.7996 20.4834 22.7902C20.5232 22.7737 23.6824 21.4502 25.1708 18.3965C25.1512 18.4888 25.1303 18.5732 25.1076 18.6469C25.0687 18.7727 25.1315 18.9069 25.2527 18.9576C25.3465 18.9971 25.453 18.9766 25.5252 18.9098C25.4311 19.1577 25.3461 19.3528 25.2766 19.468C25.2058 19.5853 25.24 19.7374 25.354 19.8132C25.3807 19.8307 25.4094 19.8426 25.4387 19.8496C25.3235 20.0183 25.2067 20.1779 25.0902 20.3241C25.0127 20.4213 25.0172 20.5601 25.0982 20.6519C24.8982 20.8614 24.7209 21.034 24.5861 21.1438C24.4981 21.2151 24.4694 21.3343 24.5098 21.4362C24.3799 21.5105 24.2731 21.5629 24.1991 21.5853C24.0749 21.6227 23.9986 21.7479 24.022 21.8756C24.0343 21.943 24.0721 21.9998 24.1245 22.0372C23.9683 22.0791 23.7974 22.1196 23.6119 22.1564C23.5074 22.1773 23.4267 22.2607 23.4096 22.3658C23.3928 22.4711 23.4427 22.5759 23.535 22.6287C23.543 22.6332 23.6303 22.6826 23.7638 22.7395C23.2697 22.9385 22.3875 23.1985 20.9397 23.3411C20.7995 23.3551 20.6968 23.4804 20.7107 23.6205C20.7244 23.7608 20.8457 23.858 20.9901 23.85C23.7384 23.5781 24.587 22.8903 24.6217 22.8608C24.701 22.7944 24.7324 22.6862 24.701 22.5874C24.6801 22.5221 24.6342 22.4693 24.5752 22.4387C25.4532 22.1623 25.8302 21.8565 25.8499 21.8401C25.9462 21.7602 25.9704 21.6221 25.907 21.5138C25.8431 21.4055 25.7102 21.3586 25.5942 21.4055C25.5616 21.418 25.5094 21.4309 25.4435 21.4439C26.0328 21.0404 26.6583 20.5598 26.9334 20.3453C26.9817 20.3095 27.0257 20.2749 27.0643 20.2425C27.1712 20.1528 27.1861 19.994 27.0979 19.8859C27.0104 19.7782 26.851 19.7601 26.7417 19.8464C26.7018 19.8779 26.6603 19.9103 26.6175 19.9437C26.4905 20.038 26.3281 20.1448 26.151 20.2544C26.8197 19.4951 27.4929 18.672 27.6852 18.4356C27.7027 18.4141 27.7199 18.3927 27.7374 18.3712C27.8257 18.2615 27.8085 18.1008 27.6987 18.0125C27.5886 17.9228 27.4278 17.9412 27.3397 18.0504L27.3391 18.051L27.3389 18.0516C27.3342 18.0571 27.3126 18.084 27.2761 18.1289C27.0747 18.3748 26.8626 18.6129 26.6533 18.8353C27.3345 17.6006 27.8504 16.3853 27.9259 16.2052C27.9287 16.1988 27.9312 16.1923 27.934 16.1857C27.9881 16.0565 27.9265 15.9068 27.7963 15.8529ZM15.8246 24.4629L15.8943 24.472C15.8088 24.552 15.7392 24.6416 15.6839 24.7342C15.5626 24.7244 15.4525 24.7158 15.3663 24.712C15.4852 24.6344 15.6381 24.5501 15.8246 24.4629Z" fill="#FFD600"/>
</svg>
