<svg width="24" height="24" viewBox="0 0 24 24" fill="none" xmlns="http://www.w3.org/2000/svg">
<path fill-rule="evenodd" clip-rule="evenodd" d="M18.8794 16.3815H19.4029V8.20881C19.4029 7.79669 19.0688 7.46266 18.6567 7.46266C17.4829 7.46266 16.0447 7.46266 16.0447 7.46266C15.6329 7.46266 15.2985 7.12828 15.2985 6.71634C15.2985 6.3044 15.6329 5.97001 16.0447 5.97001H18.6567C19.8931 5.97001 20.8955 6.97246 20.8955 8.20881V16.3815H21.6417C22.054 16.3815 22.388 16.7156 22.388 17.1277V17.9104C22.388 18.5041 22.1521 19.0736 21.7323 19.4935C21.3125 19.9133 20.7429 20.1492 20.1492 20.1492H12.6865V17.874H11.194V20.1492H3.73124C3.13751 20.1492 2.56813 19.9133 2.14813 19.4935C1.72831 19.0736 1.49243 18.5041 1.49243 17.9104V17.1277C1.49243 16.7156 1.82664 16.3815 2.23876 16.3815H2.98509V8.20881C2.98509 6.97246 3.98736 5.97001 5.22389 5.97001H7.83577C8.24771 5.97001 8.5821 6.3044 8.5821 6.71634C8.5821 7.12828 8.24771 7.46266 7.83577 7.46266C7.83577 7.46266 6.39757 7.46266 5.22389 7.46266C4.8116 7.46266 4.47757 7.79669 4.47757 8.20881V16.3815H5.00109L5.559 13.9248C6.08897 11.5912 8.16318 9.9352 10.556 9.9352H10.8605L9.72389 14.4669C9.64706 14.7734 9.77154 15.095 10.0346 15.27L11.5273 16.2617C11.6274 16.3283 11.7399 16.3683 11.8545 16.3815H12.0259C12.1407 16.3683 12.253 16.3283 12.3533 16.2617L13.8458 15.27C14.1091 15.095 14.2336 14.7734 14.1566 14.4669L13.02 9.9352H13.3244C15.7173 9.9352 17.7917 11.5912 18.3214 13.9248L18.8794 16.3815ZM11.9403 3.7312C10.3158 3.7312 8.991 5.06553 8.991 6.71634C8.991 8.36714 10.3158 9.70147 11.9403 9.70147C13.5646 9.70147 14.8896 8.36714 14.8896 6.71634C14.8896 5.06553 13.5646 3.7312 11.9403 3.7312Z" fill="#0B68FF"/>
</svg>
