<svg width="11" height="11" viewBox="0 0 11 11" fill="none" xmlns="http://www.w3.org/2000/svg">
<g clip-path="url(#clip0_10_2907)">
<path d="M3.5708 5.80347L5.45816 7.31333C5.64919 7.46619 5.92763 7.43677 6.08254 7.24744L9.8208 2.67847" stroke="#49B459" stroke-width="0.892857" stroke-linecap="round"/>
<path fill-rule="evenodd" clip-rule="evenodd" d="M4.99555 5.4624L7.04234 2.96083C7.19846 2.77 7.17033 2.48874 6.97948 2.33261C6.78868 2.17649 6.50743 2.20461 6.35127 2.39543L4.30963 4.8908L4.99555 5.4624ZM3.58204 7.19008L2.89609 6.61843L2.60443 6.9749L1.16109 5.8924C0.963844 5.7445 0.684023 5.78446 0.53609 5.98169C0.388156 6.17896 0.42813 6.45879 0.625376 6.60669L2.06872 7.68919C2.45148 7.97629 2.99249 7.91062 3.29546 7.5403L3.58204 7.19008Z" fill="#49B459"/>
</g>
<defs>
<clipPath id="clip0_10_2907">
<rect width="10.7143" height="10.7143" fill="white"/>
</clipPath>
</defs>
</svg>
