<svg width="64" height="56" viewBox="0 0 64 56" fill="none" xmlns="http://www.w3.org/2000/svg">
<path d="M61.8489 0H16.8C15.7546 0 14.9333 0.821209 14.9333 1.86667V48.5333C14.9333 50.5867 13.2535 52.2667 11.2 52.2667C10.1546 52.2667 9.33335 53.0879 9.33335 54.1333C9.33335 54.656 6.94401 55.104 4.59189 55.4025C5.48789 55.8133 6.45856 56 7.46668 56H54.3822C59.5342 56 63.7156 51.8187 63.7156 46.6667V1.86667C63.7156 0.821209 62.8944 0 61.8489 0Z" fill="url(#paint0_linear_68_183)"/>
<path d="M1.86667 37.3333C0.835769 37.3333 0 38.1691 0 39.1999V48.5333C0 51.5946 1.904 54.2825 4.55454 55.4025C4.59188 55.4398 4.59188 55.4025 4.59188 55.4025C5.43399 55.7886 6.34219 55.9767 7.28548 55.998C11.4903 56.0924 14.9333 52.3463 14.9333 48.1403V37.3333H1.86667ZM22.5244 29.8666H37.4578C38.4895 29.8666 39.3244 29.0317 39.3244 28V13.0666C39.3244 12.0348 38.4895 11.2 37.4578 11.2H22.5244C21.4927 11.2 20.6578 12.0348 20.6578 13.0666V28C20.6578 29.0317 21.4927 29.8666 22.5244 29.8666ZM45.0489 14.9333H56.2489C57.2807 14.9333 58.1156 14.0984 58.1156 13.0666C58.1156 12.0348 57.2807 11.2 56.2489 11.2H45.0489C44.0171 11.2 43.1822 12.0348 43.1822 13.0666C43.1822 14.0984 44.0171 14.9333 45.0489 14.9333ZM56.2489 18.6666H45.0489C44.0171 18.6666 43.1822 19.5015 43.1822 20.5333C43.1822 21.5651 44.0171 22.4 45.0489 22.4H56.2489C57.2807 22.4 58.1156 21.5651 58.1156 20.5333C58.1156 19.5015 57.2807 18.6666 56.2489 18.6666ZM56.2489 26.1333H45.0489C44.0171 26.1333 43.1822 26.9682 43.1822 28C43.1822 29.0317 44.0171 29.8666 45.0489 29.8666H56.2489C57.2807 29.8666 58.1156 29.0317 58.1156 28C58.1156 26.9682 57.2807 26.1333 56.2489 26.1333ZM56.2489 33.6H22.5244C21.4927 33.6 20.6578 34.4348 20.6578 35.4666C20.6578 36.4984 21.4927 37.3333 22.5244 37.3333H56.2489C57.2807 37.3333 58.1156 36.4984 58.1156 35.4666C58.1156 34.4348 57.2807 33.6 56.2489 33.6ZM56.2489 41.0666H22.5244C21.4927 41.0666 20.6578 41.9015 20.6578 42.9333C20.6578 43.9651 21.4927 44.7999 22.5244 44.7999H56.2489C57.2807 44.7999 58.1156 43.9651 58.1156 42.9333C58.1156 41.9015 57.2807 41.0666 56.2489 41.0666Z" fill="url(#paint1_linear_68_183)"/>
<defs>
<linearGradient id="paint0_linear_68_183" x1="34.1538" y1="56" x2="34.1538" y2="0" gradientUnits="userSpaceOnUse">
<stop stop-color="#FFF5DA"/>
<stop offset="1" stop-color="#FFB341"/>
</linearGradient>
<linearGradient id="paint1_linear_68_183" x1="29.0578" y1="55.9997" x2="29.0578" y2="11.2" gradientUnits="userSpaceOnUse">
<stop stop-color="#FFD9AD"/>
<stop offset="0.5028" stop-color="#EAF6FF"/>
<stop offset="1" stop-color="#EAF6FF"/>
</linearGradient>
</defs>
</svg>
