<svg width="26" height="26" viewBox="0 0 26 26" fill="none" xmlns="http://www.w3.org/2000/svg">
<path d="M4.0625 13.4809H8.80181C10.1457 13.4809 11.2393 12.3873 11.2393 11.0434V6.30493C11.2393 4.96106 10.1457 3.86743 8.80181 3.86743H4.0625C2.71863 3.86743 1.625 4.96106 1.625 6.30493V11.0434C1.625 12.3873 2.71863 13.4809 4.0625 13.4809ZM3.25 6.30493C3.25 5.85643 3.61481 5.49243 4.0625 5.49243H8.80181C9.2495 5.49243 9.61431 5.85643 9.61431 6.30493V11.0434C9.61431 11.4919 9.2495 11.8559 8.80181 11.8559H4.0625C3.61481 11.8559 3.25 11.4919 3.25 11.0434V6.30493Z" fill="#0B68FF"/>
<path d="M21.9375 1.625H14.9565C13.6126 1.625 12.519 2.71862 12.519 4.0625V11.0435C12.519 12.3874 13.6126 13.481 14.9565 13.481H21.9375C23.2814 13.481 24.375 12.3874 24.375 11.0435V4.0625C24.375 2.71862 23.2814 1.625 21.9375 1.625ZM22.75 11.0435C22.75 11.492 22.3852 11.856 21.9375 11.856H14.9565C14.5088 11.856 14.144 11.492 14.144 11.0435V4.0625C14.144 3.614 14.5088 3.25 14.9565 3.25H21.9375C22.3852 3.25 22.75 3.614 22.75 4.0625V11.0435Z" fill="#0B68FF"/>
<path d="M4.0625 24.3751H8.80181C10.1457 24.3751 11.2393 23.2814 11.2393 21.9376V17.1982C11.2393 15.8544 10.1457 14.7607 8.80181 14.7607H4.0625C2.71863 14.7607 1.625 15.8544 1.625 17.1982V21.9376C1.625 23.2814 2.71863 24.3751 4.0625 24.3751ZM3.25 17.1982C3.25 16.7497 3.61481 16.3857 4.0625 16.3857H8.80181C9.2495 16.3857 9.61431 16.7497 9.61431 17.1982V21.9376C9.61431 22.3861 9.2495 22.7501 8.80181 22.7501H4.0625C3.61481 22.7501 3.25 22.3861 3.25 21.9376V17.1982Z" fill="#0B68FF"/>
<path d="M14.9565 24.3751H19.6958C21.0397 24.3751 22.1333 23.2814 22.1333 21.9376V17.1982C22.1333 15.8544 21.0397 14.7607 19.6958 14.7607H14.9565C13.6126 14.7607 12.519 15.8544 12.519 17.1982V21.9376C12.519 23.2814 13.6126 24.3751 14.9565 24.3751ZM14.144 17.1982C14.144 16.7497 14.5088 16.3857 14.9565 16.3857H19.6958C20.1435 16.3857 20.5083 16.7497 20.5083 17.1982V21.9376C20.5083 22.3861 20.1435 22.7501 19.6958 22.7501H14.9565C14.5088 22.7501 14.144 22.3861 14.144 21.9376V17.1982Z" fill="#0B68FF"/>
</svg>
