<svg width="18" height="18" viewBox="0 0 18 18" fill="none" xmlns="http://www.w3.org/2000/svg">
<path d="M8.87173 8.67067C10.0629 8.67067 11.0943 8.24344 11.9372 7.40051C12.7798 6.55773 13.2072 5.52652 13.2072 4.3352C13.2072 3.14428 12.78 2.11294 11.9371 1.26988C11.0941 0.42723 10.0628 0 8.87173 0C7.6804 0 6.6492 0.42723 5.80641 1.27002C4.96362 2.1128 4.53625 3.14414 4.53625 4.3352C4.53625 5.52652 4.96362 6.55786 5.80641 7.40065C6.64948 8.2433 7.68082 8.67067 8.87173 8.67067ZM6.55238 2.01585C7.19907 1.36917 7.95767 1.05482 8.87173 1.05482C9.78566 1.05482 10.5444 1.36917 11.1912 2.01585C11.8379 2.66267 12.1524 3.42141 12.1524 4.3352C12.1524 5.24926 11.8379 6.00786 11.1912 6.65468C10.5444 7.3015 9.78566 7.61585 8.87173 7.61585C7.95795 7.61585 7.19934 7.30136 6.55238 6.65468C5.90556 6.008 5.59108 5.24926 5.59108 4.3352C5.59108 3.42141 5.90556 2.66267 6.55238 2.01585Z" fill="#0B68FF"/>
<path d="M16.4577 13.8171C16.4333 13.4663 16.3842 13.0837 16.3118 12.6797C16.2388 12.2727 16.1447 11.8879 16.0321 11.5362C15.9156 11.1726 15.7576 10.8137 15.5619 10.4697C15.359 10.1126 15.1206 9.80169 14.8531 9.54585C14.5734 9.2782 14.2309 9.063 13.8348 8.90604C13.4401 8.74989 13.0027 8.67079 12.5349 8.67079C12.3511 8.67079 12.1734 8.74619 11.8302 8.96962C11.619 9.10736 11.3719 9.26666 11.0962 9.44285C10.8604 9.59309 10.541 9.73385 10.1464 9.8613C9.76149 9.98585 9.37065 10.049 8.98476 10.049C8.59914 10.049 8.2083 9.98585 7.82309 9.8613C7.42896 9.73399 7.10939 9.59323 6.87401 9.44299C6.60086 9.26845 6.35367 9.10915 6.1393 8.96948C5.79639 8.74605 5.61868 8.67065 5.43494 8.67065C4.96692 8.67065 4.52966 8.74989 4.13512 8.90617C3.73933 9.06287 3.3967 9.27806 3.11668 9.54599C2.84917 9.80197 2.61076 10.1127 2.40807 10.4697C2.21265 10.8137 2.05444 11.1725 1.93799 11.5363C1.82552 11.888 1.73145 12.2727 1.65839 12.6797C1.58588 13.0832 1.53685 13.4659 1.51254 13.8175C1.48865 14.1612 1.47656 14.5189 1.47656 14.8804C1.47656 15.82 1.77525 16.5807 2.36426 17.1416C2.94598 17.6952 3.71558 17.9759 4.65175 17.9759H13.3189C14.2548 17.9759 15.0244 17.6952 15.6062 17.1416C16.1954 16.5811 16.494 15.8201 16.494 14.8803C16.4939 14.5176 16.4817 14.1598 16.4577 13.8171ZM14.8789 16.3774C14.4945 16.7433 13.9842 16.9211 13.3187 16.9211H4.65175C3.98611 16.9211 3.4758 16.7433 3.09155 16.3775C2.71458 16.0187 2.53139 15.5289 2.53139 14.8804C2.53139 14.5431 2.54251 14.2101 2.56476 13.8904C2.58646 13.5767 2.63081 13.2322 2.69659 12.8661C2.76155 12.5045 2.84422 12.1651 2.94255 11.8579C3.0369 11.5633 3.16557 11.2717 3.32515 10.9907C3.47745 10.7229 3.65268 10.4931 3.84604 10.308C4.0269 10.1349 4.25487 9.99313 4.52348 9.88684C4.77191 9.78851 5.0511 9.73468 5.35419 9.72658C5.39113 9.74621 5.45691 9.7837 5.56348 9.85319C5.78032 9.9945 6.03026 10.1557 6.30656 10.3322C6.61803 10.5308 7.0193 10.7101 7.49872 10.8649C7.98885 11.0234 8.48872 11.1038 8.98489 11.1038C9.48106 11.1038 9.98108 11.0234 10.4709 10.865C10.9508 10.71 11.3519 10.5308 11.6638 10.3319C11.9465 10.1512 12.1895 9.99464 12.4063 9.85319C12.5129 9.78384 12.5787 9.74621 12.6156 9.72658C12.9188 9.73468 13.198 9.78851 13.4466 9.88684C13.7151 9.99313 13.943 10.135 14.1239 10.308C14.3172 10.493 14.4925 10.7228 14.6448 10.9908C14.8045 11.2717 14.9333 11.5635 15.0275 11.8578C15.126 12.1654 15.2088 12.5046 15.2736 12.8659C15.3392 13.2327 15.3837 13.5774 15.4054 13.8905V13.8908C15.4278 14.2093 15.4391 14.5421 15.4392 14.8804C15.4391 15.529 15.2559 16.0187 14.8789 16.3774Z" fill="#0B68FF"/>
</svg>
