<svg width="24" height="22" viewBox="0 0 24 22" fill="none" xmlns="http://www.w3.org/2000/svg">
<path d="M4.6985 0.0588818C4.15145 0.175092 4.04998 0.252566 2.62499 1.64709C1.38089 2.85654 1.28383 2.96415 1.13824 3.26543C0.895596 3.76471 0.838244 4.03156 0.811773 4.73743C0.785303 5.44761 0.842655 5.91676 1.06324 6.73453C2.39117 11.6541 8.32935 18.1275 14.0116 20.8477C15.6969 21.6525 16.9719 22.0055 18.2248 22.0098C18.9925 22.0098 19.3807 21.9323 19.9145 21.6784C20.2586 21.5148 20.3469 21.433 21.5866 20.2279C22.9718 18.8764 23.0513 18.7774 23.2277 18.2049C23.3204 17.9037 23.3204 17.3355 23.2277 17.0342C23.0689 16.5177 23.0027 16.4403 21.2513 14.7229C20.3292 13.8148 19.4513 12.9884 19.3057 12.8851C18.4322 12.2782 17.3072 12.3643 16.5749 13.0917C16.3543 13.3112 16.266 13.4403 16.116 13.7889C16.0102 14.0214 15.8734 14.2839 15.8072 14.37C15.3837 14.9295 14.5719 15.2825 13.8793 15.2136C12.847 15.106 11.3073 14.1935 10.0014 12.9195C8.42199 11.3787 7.49112 9.60536 7.71612 8.57238C7.822 8.09032 8.17053 7.58674 8.58082 7.31989C8.67787 7.25102 8.88964 7.14342 9.04846 7.07886C9.50728 6.88948 9.61757 6.82492 9.83374 6.64415C10.5661 6.02005 10.7249 4.84934 10.1911 4.01865C10.0367 3.77332 6.9926 0.773363 6.62201 0.493597C6.32643 0.274088 5.93819 0.101923 5.58967 0.041666C5.25879 -0.0185913 5.0382 -0.0142879 4.6985 0.0588818Z" fill="#0B68FF"/>
</svg>
