<svg width="34" height="34" viewBox="0 0 34 34" fill="none" xmlns="http://www.w3.org/2000/svg">
<g clip-path="url(#clip0_63_112)">
<path d="M17 34C7.61116 34 0 26.3888 0 17C0 7.61116 7.61116 0 17 0C26.3888 0 34 7.61116 34 17C34 26.3888 26.3888 34 17 34Z" fill="#F0F0F0"/>
<path d="M1.05739 22.9129C0.374001 21.0713 0 19.0794 0 16.9999C0 14.9205 0.374001 12.9286 1.05739 11.0869H32.9426C33.6259 12.9286 34 14.9205 34 16.9999C34 19.0794 33.6259 21.0713 32.9426 22.9129L17 24.3912L1.05739 22.9129Z" fill="#0052B4"/>
<path d="M17 34.0001C9.69061 34.0001 3.45938 29.3867 1.0574 22.9131H32.9426C30.5406 29.3867 24.3094 34.0001 17 34.0001Z" fill="#D80027"/>
</g>
<defs>
<clipPath id="clip0_63_112">
<rect width="34" height="34" fill="white" transform="matrix(-1 0 0 1 34 0)"/>
</clipPath>
</defs>
</svg>
