<svg width="19" height="19" viewBox="0 0 19 19" fill="none" xmlns="http://www.w3.org/2000/svg">
<path d="M17.2672 9.15792L3.16922 2.11272C2.99553 2.02601 2.80258 1.98509 2.60865 1.99383C2.41471 2.00258 2.22623 2.06071 2.06105 2.16271C1.89588 2.26471 1.75948 2.40719 1.6648 2.57667C1.57012 2.74614 1.52028 2.93699 1.52002 3.13112V7.35672C1.52101 7.61809 1.61119 7.8713 1.77565 8.07445C1.9401 8.2776 2.16898 8.41853 2.42442 8.47392L6.98442 9.49992L2.42442 10.5259C2.16898 10.5813 1.9401 10.7222 1.77565 10.9254C1.61119 11.1285 1.52101 11.3817 1.52002 11.6431V15.8687C1.52028 16.0628 1.57012 16.2537 1.6648 16.4232C1.75948 16.5926 1.89588 16.7351 2.06105 16.8371C2.22623 16.9391 2.41471 16.9973 2.60865 17.006C2.80258 17.0148 2.99553 16.9738 3.16922 16.8871L17.2672 9.87992C17.3432 9.85493 17.4094 9.80658 17.4564 9.74175C17.5033 9.67693 17.5286 9.59895 17.5286 9.51892C17.5286 9.43889 17.5033 9.36091 17.4564 9.29608C17.4094 9.23126 17.3432 9.18291 17.2672 9.15792Z" fill="white"/>
</svg>
