<svg width="117" height="117" viewBox="0 0 117 117" fill="none" xmlns="http://www.w3.org/2000/svg">
<path d="M32.9062 60.01L38.0725 54.8438L51.1875 67.9551L78.9202 40.2188L84.0938 45.3923L51.1875 78.2949L32.9062 60.01Z" fill="#00DB7F"/>
<path d="M30.0618 15.9391C38.4795 10.3146 48.3761 7.3125 58.5 7.3125C72.0758 7.3125 85.0955 12.7055 94.695 22.305C104.295 31.9045 109.688 44.9242 109.688 58.5C109.688 68.6239 106.685 78.5205 101.061 86.9382C95.4363 95.356 87.4419 101.917 78.0886 105.791C68.7353 109.665 58.4432 110.679 48.5138 108.704C38.5844 106.729 29.4637 101.854 22.305 94.695C15.1463 87.5363 10.2712 78.4156 8.29608 68.4862C6.321 58.5568 7.33468 48.2647 11.2089 38.9114C15.0832 29.5581 21.644 21.5637 30.0618 15.9391ZM34.1244 94.9807C41.3396 99.8018 49.8224 102.375 58.5 102.375C70.1364 102.375 81.2962 97.7525 89.5243 89.5243C97.7525 81.2962 102.375 70.1364 102.375 58.5C102.375 49.8223 99.8018 41.3396 94.9807 34.1244C90.1597 26.9092 83.3074 21.2856 75.2903 17.9648C67.2732 14.644 58.4514 13.7751 49.9404 15.468C41.4295 17.161 33.6117 21.3397 27.4757 27.4757C21.3397 33.6117 17.161 41.4295 15.4681 49.9404C13.7751 58.4513 14.644 67.2731 17.9648 75.2902C21.2856 83.3073 26.9092 90.1597 34.1244 94.9807Z" fill="#00DB7F"/>
</svg>
